<svg xmlns="http://www.w3.org/2000/svg" width="400" height="208">
  <path fill="#02a1a3" d="M0 0h3.78v206.509H0zm0 0"/>
  <path fill="#211e1e" d="M70.285 55.215c0 .78-.7 1.532-1.944 2.177.349-1.648-3.584-2.159-3.584-3.368 0-1.048 1.568-1.595 2.75-1.801.78.994 2.778 1.72 2.778 2.992m-4.04 6.944-.69.25s-1.139-1.146-1.39-1.406c-.018.358-.107 1.8-.107 1.8l-.914.18.206-3.44.663-.126 1.407 1.425c.018-.34.107-1.747.107-1.747l.914-.251zm-3.88.555c-.35.323-.789.502-1.317.52-.502.009-.932-.135-1.272-.448a1.572 1.572 0 0 1-.52-1.2c0-.493.18-.915.52-1.255.34-.331.77-.51 1.29-.529.51-.018.95.135 1.299.448.358.323.528.726.528 1.219 0 .493-.179.914-.528 1.245m-3.387.6-.932.01V61.55c-.224.26-.779.922-.779.922s-.555-.663-.78-.922v1.773l-.931-.026v-3.351l.78.027.94 1.138c.125-.162.905-1.13.905-1.13l.797-.018zm-5.232-2.598c-.269-.036-.708-.09-.959-.125v2.508l-.931-.134v-2.509c-.27-.035-.672-.107-.95-.152v-.887c.824.135 1.935.296 2.84.403zm-5.134 1.416-.179-3.306c.511.143 1.613.439 2.186.537l.027.905c-.287-.053-.833-.17-1.227-.277 0 .044.009.206.018.295a97.7 97.7 0 0 1 1.138.287l.027.905s-.923-.224-1.12-.278c0 .027.018.26.018.35.314.107.797.224 1.2.313l.045.914a11.051 11.051 0 0 1-2.132-.645m-2.043-4.74c-1.245-.645-1.953-1.397-1.953-2.177 0-1.272 1.998-1.998 2.778-2.983 1.182.197 2.759.744 2.759 1.792 0 1.21-3.933 1.72-3.584 3.368m-3.279-4.891c-.958.42-1.54.009-1.854-.672l-.77-1.73.824-.43s.77 1.748.779 1.748c.17.367.35.475.69.313.403-.197.403-.367.25-.708l-.797-1.818.905-.314.753 1.783c.295.717.233 1.389-.78 1.828m-3.69 2.087-1.703-2.732 1.792-1.165.457.735-1.022.68c.045.081.099.18.153.26l.994-.672.448.735-.985.672c.053.08.125.197.179.278l1.057-.708.466.735zm-1.793 1.192-1.72-2.724.753-.502 1.72 2.742zm-2.481 1.478-.95.52-1.63-2.742.994-.537c.358-.197.663-.296.94-.296.278 0 .556.063.816.215.25.143.475.34.61.6.366.69.411 1.613-.78 2.24m34.797-8.762 1.245.304c.78.206 1.506.923 1.084 1.98-.501 1.219-1.415 1.29-2.329 1.076l-1.093-.27zm4.614 1.9c.152.098.358.25.484.483.17.278.161.6-.027.914a.816.816 0 0 1-.502.403.72.72 0 0 1-.242.018c.027.135.045.296.054.475.045.681.135 1.416.135 1.434a69.042 69.042 0 0 0-.995-.636l-.072-.941c-.026-.34-.044-.475-.152-.547-.08.144-.591 1.004-.591 1.004l-.806-.421 1.621-2.822c.242.143.851.483 1.093.636m1.478 1.585a1.764 1.764 0 0 1 1.3.206c.42.242.698.583.815 1.022a1.482 1.482 0 0 1-.188 1.245c-.242.403-.6.654-1.058.753-.439.09-.878.018-1.308-.224-.412-.242-.68-.574-.806-1.004-.117-.42-.054-.833.188-1.236.26-.403.61-.654 1.057-.762m3.951 1.909-1.702 2.786-.797-.493 1.71-2.768zm2.92 1.603-.42.753a26.472 26.472 0 0 1-.986-.457c-.277.439-1.066 1.684-1.21 1.917l-.841-.367c.018-.018.94-1.478 1.254-1.971a15.283 15.283 0 0 1-.842-.493l.42-.752c.682.412 2.044 1.11 2.626 1.37m-.717 3.091c1.676 0 3.172-2.123 5.268-3.055-5.304 1.541-12.614-7.436-17.596-7.436-1.397 0-3.019.529-3.816 2.455-.842 2.043-1.774 2.715-1.774 3.62 0 .797.717 1.406 1.926 2.042.78.412 1.595.645 1.55 1.38-2.276 1.04-6.02 1.756-10.473 1.756-4.453 0-8.198-.717-10.474-1.756-.044-.735.771-.968 1.541-1.38 1.219-.636 1.936-1.245 1.936-2.043 0-.904-.941-1.576-1.774-3.619-.798-1.926-2.42-2.455-3.817-2.455-4.981 0-12.3 8.986-17.605 7.436 2.106.932 3.593 3.055 5.277 3.055 4.292 0 9.264-6.45 13.932-6.45.062 0 .134 0 .206.009-1.084 1.344-2.607 1.621-2.607 2.983 0 .959.824 1.532 1.397 2.813.359.798.43 1.362.726 2.491.269.994.959 3.53 11.262 3.53 10.294 0 10.984-2.536 11.252-3.53.305-1.129.377-1.693.735-2.49.564-1.282 1.389-1.855 1.389-2.814 0-1.362-1.523-1.64-2.607-2.983.071-.01.152-.01.206-.01 4.667 0 9.64 6.451 13.94 6.451M61.684 60.94a.77.77 0 0 0-.592-.215c-.26.019-.465.09-.627.251a.783.783 0 0 0-.233.591.71.71 0 0 0 .224.547c.17.143.368.215.61.206a.881.881 0 0 0 .618-.25.799.799 0 0 0 .242-.583.667.667 0 0 0-.242-.547m14.558-6.692a.824.824 0 0 0 .627.098.744.744 0 0 0 .493-.358c.108-.188.144-.367.09-.564a.79.79 0 0 0-.376-.475.902.902 0 0 0-.636-.108c-.206.045-.368.17-.493.367a.729.729 0 0 0-.09.574c.054.197.18.35.385.466m-5.841-3.226c.582.153.95.054 1.174-.501.17-.412.035-.744-.636-.923l-.215-.054c-.063.143-.502 1.389-.52 1.433.09.027.197.045.197.045m3.861.44c.054-.019.09-.045.108-.09a.169.169 0 0 0 .027-.09c0-.063-.045-.125-.126-.18-.009-.008-.242-.151-.242-.151 0 .009-.134.233-.197.34.081.054.206.125.206.125.081.045.162.063.224.045m-40.11 3.808s-.098.054-.179.09c.063.107.663 1.102.744 1.245.053-.036.188-.108.188-.108.645-.349.573-.788.403-1.057-.34-.528-.762-.376-1.156-.17M70.25 34.824c-.01.323-.099.583-.296.762a.974.974 0 0 1-.672.25.906.906 0 0 1-.645-.268c-.18-.188-.269-.457-.269-.789v-.143c-.107 0-1.048-.018-1.048-.018l.018-.87 2.93.063zm-.457 3.521-.807-.152.188-1.004-.224-.044-.17.976-.815-.152.179-.968-.242-.053-.188 1.048-.815-.152.35-1.882 2.884.52zm-.457 1.407-1.828.636 1.353.546-.314.78-2.723-1.111.25-.618 1.801-.619-1.334-.537.313-.78 2.724 1.102zm-1.747 3.53c-.135.197-.466.412-.69.501h.009l-.824-.555c.86-.269.913-.52.869-.556-.036-.035-.17.036-.34.126-.305.152-.771.385-1.255.054a.878.878 0 0 1-.385-.574.918.918 0 0 1 .152-.708c.161-.25.484-.465.815-.582l.816.556-.135.026c-.394.09-.708.323-.788.43-.036.045-.063.09-.054.117 0 0 0 .018.018.018.072.054.287-.045.448-.125.332-.144.744-.332 1.147-.054.206.134.34.331.385.555.01.054.019.108.019.162 0 .206-.072.412-.206.609m-2.383 2.66-.592-.573.726-.734-.161-.153-.69.708-.591-.582.69-.708-.17-.17-.762.726-.583-.574 1.362-1.335 2.097 2.052zm-7.383-11.825V23.59a8.027 8.027 0 0 1 3.19.833 9.12 9.12 0 0 1 2.902 2.302 10.855 10.855 0 0 1 1.98 3.432c.457 1.254.69 2.589.717 3.96zm-.367-11.154c-.627.009-1.272-.35-1.29-1.183v-1.756l.86-.027v1.693c.009.242.036.278.071.314a.48.48 0 0 0 .35.125c.17-.009.304-.053.385-.134.036-.036.072-.108.072-.35V19.98l.86.01v1.737c0 .34-.108.645-.314.86-.224.233-.555.368-.994.377m-9.157 11.154c.019-1.37.26-2.706.717-3.96a11.007 11.007 0 0 1 1.971-3.431c.842-.986 1.819-1.765 2.912-2.303a7.845 7.845 0 0 1 3.395-.833v10.527zm-.026-5.304a1.432 1.432 0 0 1-1.084-.108 1.397 1.397 0 0 1-.7-.833 1.499 1.499 0 0 1 .126-1.156c.197-.376.502-.645.878-.761a1.432 1.432 0 0 1 1.084.108c.35.179.592.483.708.842.036.134.063.277.063.412 0 .25-.072.502-.197.743-.197.368-.502.637-.878.753m.044-4.605 2.213 1.738-.52.663-2.212-1.747zm2.16-2.087.537.59-.582.538c.071.09 1.362 1.479 1.362 1.479l-.61.573-1.37-1.478-.583.537-.546-.582zm5.67.394-.367.806c-.627.143-1.326-.018-1.478-.063a1.469 1.469 0 0 1-1.586-.958 1.449 1.449 0 0 1 .027-1.129c.17-.367.51-.663.95-.824.815-.296 1.657.08 1.953.887a1.473 1.473 0 0 1-.152 1.317c.134-.01.394.044.654-.036m4.327-2.258-.573 2.966-.851-.17.582-2.966zm-10.285-.663c0-1.711 4.82-1.854 7.257-1.854h.009c2.446 0 7.257.143 7.257 1.854 0 .475-.305.878-.995 1.29-1.21-.806-3.27-1.684-6.262-1.684-3.001 0-5.062.878-6.263 1.684-.698-.412-1.003-.815-1.003-1.29m14.496 2.616.51.394-1.773 2.402-.708-.493.905-1.183-.87.224-.143-.923-.833 1.201-.761-.412 1.71-2.464.574.305.197 1.236zm2.016 1.909.358.448-1.55 3.019-.564-.78.277-.528-.564-.726-.493.161-.699-.654zm4.228 9.129a2.687 2.687 0 0 1-.842-.986 86.69 86.69 0 0 1-1.55-.546s-.17-.063-.206-.072l-1.2.323-.224-.833 1.21-.323c.018-.027.062-.08.107-.143.179-.233.502-.654.654-.824a49.036 49.036 0 0 0-.789-1.39c-.179-.304-.268-.6-.268-.841l-1.111.573c.044.099.484.986.484.986l-.744.367-.86-1.756 2.634-1.29.116.224c.063-.099.135-.197.197-.296.09-.134.17-.242.251-.331a14.567 14.567 0 0 0-1.774-2.446 13.557 13.557 0 0 0-2.723-2.365c.537-.35 1.075-.851 1.075-1.685 0-.492-.197-.887-.556-1.2.556-1.801 1.568-3.978 2.428-4.928l-1.81-.761c.475.708.502 1.55.404 2.034-.475-.323-.878-.771-1.013-1.362-.09.546-.394 1.433-.663 1.962.52-.251.941-.359 1.47-.135-.305.413-1.084 1.04-2.276.753-.645-.152-1.281-.493-1.254-.986.018-.295.233-.654.636-.618.394.045.412.636.295.905.511-.287 1.049-1.81.242-2.034-.636-.17-1.218.7-1.424 1.371-.126-.806-.457-1.586-1.102-1.54-.824.062-.565 1.594-.269 1.988.054-.537.34-.824.591-.806.224.009.52.17.466.663-.053.484-.752.788-1.55.788-.77 0-2.105-.233-2.23-1.711.492.09 1.272.466 1.603.968a9.376 9.376 0 0 1 0-2.455c-.412.582-1.102.878-1.586.958.144-.636.681-1.299 1.317-1.693h-3.288c.637.394 1.174 1.057 1.317 1.684-.483-.08-1.155-.385-1.558-.95.098.924.098 1.56 0 2.456.322-.493 1.084-.87 1.585-.96-.134 1.47-1.469 1.703-2.24 1.703-.797 0-1.496-.304-1.55-.788-.044-.493.251-.654.466-.663.242-.019.538.269.592.806.295-.394.564-1.926-.269-1.989-.645-.045-.977.735-1.102 1.541-.206-.672-.788-1.54-1.424-1.37-.807.223-.27 1.746.241 2.033-.116-.269-.098-.86.296-.905.403-.036.618.323.636.618.027.493-.61.834-1.254.986-1.183.287-1.953-.332-2.267-.753.538-.224.959-.116 1.487.135-.277-.529-.573-1.416-.663-1.962-.134.6-.546 1.048-1.03 1.38a2.81 2.81 0 0 1 .394-2.052l-1.81.761c.86.95 1.873 3.136 2.437 4.946-.34.313-.537.699-.537 1.182 0 .834.537 1.335 1.075 1.685a13.605 13.605 0 0 0-2.733 2.365 15.367 15.367 0 0 0-2.884 4.811c-.036.09-.063.18-.099.26.206.206.403.42.6.636l.027-.08c.09-.225.358-.503.565-.637l.904.358c-.376.27-.833.637-.734.735.036.036.233-.125.322-.197.269-.206.672-.537 1.21-.322.233.09.412.26.51.474a.927.927 0 0 1 0 .726c-.107.278-.376.565-.671.744l-.825-.323c.34-.206.663-.582.717-.69.027-.062.027-.125 0-.143-.072-.036-.25.099-.412.224-.18.134-.385.287-.627.34.385.556.645 1.067.663 1.488.027.815.197 1.138.636 1.684.654.833-.018.77.555 1.792a9.63 9.63 0 0 1-.044-.878h8.995v9.82c-.368.008-.762.053-1.076.42a43.15 43.15 0 0 0 3.082 1.111c.09-.645.27-.958.592-1.353 0 0-1.362-.134-2.07-.17v-9.828h8.79a12.267 12.267 0 0 1-.718 3.924 10.91 10.91 0 0 1-1.98 3.422 9.348 9.348 0 0 1-2.902 2.303c-.26.125-.448.546-.619.914a3.429 3.429 0 0 0-.277.967c.42.117.501.206.896.305 3.082.77 3.888.618 4.058.484h.01a14.21 14.21 0 0 0 1.934-1.819A15.495 15.495 0 0 0 69.91 40.3a16.988 16.988 0 0 0 1.057-5.93c0-.377-.009-.744-.036-1.12M54.48 21.142a.653.653 0 0 0-.52-.009c-.197.072-.34.188-.412.35a.703.703 0 0 0-.018.52c.054.143.278.609.905.376a.642.642 0 0 0 .376-.34.577.577 0 0 0 .063-.279.678.678 0 0 0-.045-.224.69.69 0 0 0-.35-.394m14.828 13.815c.054 0 .108 0 .117-.134v-.17c-.063 0-.17-.01-.233-.01l-.009.144c0 .072.018.126.045.144.009.009.026.026.08.026m.251-3.771-.268-.538h-.01c-.044.063-.107.144-.16.224-.027.045-.054.09-.09.135.062.018.116.036.179.062.116.045.242.081.35.117m-3.8-5.95-.313.09.161.215zm-17.577 1.578c-.332-.17-.681-.054-.851.277a.624.624 0 0 0-.063.502.624.624 0 0 0 .314.367.602.602 0 0 0 .851-.278.71.71 0 0 0 .08-.313.616.616 0 0 0-.33-.555m-.422 12.793V39.6a.78.78 0 0 0-.063-.277c-.143-.368-.51-.538-.869-.403-.367.143-.52.51-.367.886.071.18.197.323.358.395a.717.717 0 0 0 .51 0 .645.645 0 0 0 .43-.592m10.832 9.569a.79.79 0 0 1 0-1.577c.43 0 .78.359.78.789 0 .43-.35.788-.78.788m-3.771-1.165a.86.86 0 1 1 0-1.72.86.86 0 0 1 0 1.72m-1.3-3.825-.205-.161c-.395-.296-.726-.287-1.075.018-.17.134-.314.313-.466.484l-.215.25.143.117c.412.331.475.69.358.905a.339.339 0 0 1-.205.161c-.206.054-.502-.018-.798-.197l-.152-.09-.099.153a.789.789 0 0 1-.071.107 2.925 2.925 0 0 0-.108.17c-.18.305-.26.547-.26.735 0 .054.01.108.019.152.062.224.241.332.403.421l.098.054c.18.117.448.269.636.385-.358.206-.725.224-1.093.045-.555-.269-.904-.896-.904-1.21 0-.474.214-1.075.609-1.693l.062-.098-.062-.099a4.506 4.506 0 0 1-.278-.546c.206.026.412.062.618.107l.099.027.071-.08c.242-.26 1.093-1.112 1.873-1.112.358 0 .726.18.994.493.206.233.332.502.368.77-.108-.08-.233-.17-.359-.268m-5.429.125-.493-.708.86-.6c-.053-.08-.43-.609-.483-.69-.09.054-.86.6-.86.6l-.502-.698 2.4-1.693.494.698s-.77.556-.86.618c.062.072.43.6.483.681l.87-.609.492.717zm-2.41-4.21a1.572 1.572 0 0 1 0-1.21 1.501 1.501 0 0 1 1.971-.762c.376.162.663.475.833.896.072.197.108.403.108.6 0 .215-.036.413-.117.6a1.512 1.512 0 0 1-1.971.77 1.594 1.594 0 0 1-.824-.895m15.204 7.105c-2.016-.502-4.408-1.362-6.648-2.375l.009-.035c.063-.448-.108-.95-.457-1.353-.35-.394-.806-.618-1.272-.618a1.79 1.79 0 0 0-.61.116c-.322-.287-.626-.61-.922-.95a11.064 11.064 0 0 1-1.971-3.422 12.292 12.292 0 0 1-.582-2.276c-.108.645-.878 1.407-2.133 1.425.019-.134-.018-.332-.134-.367-.332.367-.77.743-1.9.331.17.896.422 1.765.735 2.616.681 1.81 1.649 3.44 2.885 4.847.412.457.842.887 1.29 1.281-.009.09-.018.17-.018.26 0 .475.457 1.218 1.11 1.541.538.26 1.12.188 1.64-.188.977.52 2.222 1.003 3.566 1.38 1.505.42 2.957.654 4.094.654.977 0 2.276-.466 3.548-1.273.52-.322.995-.68 1.353-1.012l.134-.134c-.994.143-2.49-.135-3.718-.448M58.53 3.35c-.457-.359-.807-.878-.87-1.416.52.09 1.102.466 1.452.923V.654c-.35.457-.932.833-1.451.923.053-.529.385-1.021.833-1.577H56.37c.448.556.77 1.048.834 1.577-.52-.09-1.102-.466-1.452-.923v2.204c.35-.457.932-.833 1.452-.923-.063.538-.413 1.057-.87 1.416zm-3.056 2.66a2.002 2.002 0 0 0 1.963 1.569 2 2 0 0 0 1.953-1.568zm2.375-.788h1.559a2.008 2.008 0 0 0-1.56-1.621zm-.834 0V3.602a2.018 2.018 0 0 0-1.567 1.621zm1.506 3.02c-.224.107-.457.179-.717.224v2.732h.717zm-2.177 2.956h.707V8.467a2.61 2.61 0 0 1-.707-.225zm2.329-3.458a.64.64 0 0 0 .636.645.635.635 0 0 0 .636-.645.633.633 0 0 0-.636-.636.639.639 0 0 0-.636.636m2.132-.054a.64.64 0 1 0-.645-.645c0 .358.296.645.645.645m1.577-.457a.635.635 0 0 0 .636-.645.633.633 0 0 0-.636-.636.64.64 0 0 0 0 1.281m4.506 1.425c.35 0 .637-.287.637-.636a.633.633 0 0 0-.637-.636.633.633 0 0 0-.636.636c0 .349.287.636.636.636m-1.245-1.093a.64.64 0 1 0-.009-1.281.64.64 0 0 0 .01 1.28m-1.596-.492a.635.635 0 0 0 .645-.636.64.64 0 0 0-1.28 0c0 .358.286.636.635.636m3.44 4.874a.635.635 0 0 0-.644.636.64.64 0 0 0 1.28 0 .633.633 0 0 0-.635-.636m.313-1.55a.635.635 0 0 0-.645.636.64.64 0 0 0 1.281 0 .633.633 0 0 0-.636-.636m-.85-.914c0 .35.286.636.635.636a.633.633 0 0 0 .636-.636.627.627 0 0 0-.636-.636.633.633 0 0 0-.636.636M55.546 8.386a.64.64 0 1 0 .01-1.281.64.64 0 0 0-.01 1.281m-1.487-.699a.635.635 0 0 0 .636-.645.633.633 0 0 0-.636-.636.64.64 0 0 0 0 1.281m-1.577-.457a.64.64 0 1 0-.009-1.28.64.64 0 0 0 .01 1.28m-4.507 1.425c.35 0 .636-.287.636-.636a.633.633 0 0 0-.636-.636.635.635 0 0 0-.645.636c0 .349.286.636.645.636m1.245-1.093c.35 0 .645-.287.645-.636a.648.648 0 0 0-.645-.645.64.64 0 0 0 0 1.28m1.586-.492a.635.635 0 0 0 .645-.636.64.64 0 0 0-1.281 0c0 .358.286.636.636.636m-2.796 5.51a.64.64 0 0 0-.636-.645.64.64 0 0 0 0 1.28c.35 0 .636-.286.636-.635m-.313-1.55a.639.639 0 0 0-.636-.636.633.633 0 0 0-.636.636c0 .35.277.636.636.636.35 0 .636-.287.636-.636m-.421-.914c.35 0 .636-.287.636-.636a.633.633 0 0 0-.636-.636.635.635 0 0 0-.645.636c0 .35.286.636.645.636m14.89.412c.367.699.69 1.111.636 1.658-.045.537-.618.922-.887 1.469-.25-.627-.654-1.111-.61-1.613.055-.492.736-1.155.861-1.514m-9.452 0c-.367.699-.68 1.111-.636 1.658.045.537.618.922.887 1.469.25-.627.663-1.111.61-1.613-.055-.492-.736-1.155-.86-1.514M60.32 55.36c-.152-.269-.358-.421-.537-.421-.824 0-.502 2.168-1.487 2.168-.421 0-.654-.278-.654-.582 0-.305.215-.395.215-.645 0-.242-.189-.332-.404-.332-.215 0-.403.09-.403.332 0 .25.215.34.215.645 0 .304-.233.582-.663.582-.976 0-.654-2.168-1.478-2.168-.18 0-.394.152-.538.42-.16-.304-.25-.617-.25-.85 0-.394.304-.941.94-.941 1.102 0 .842 1.496 1.362 1.496.242 0 .412-.143.412-.367 0-.43-.77-.824-.77-1.443 0-.609.564-1.12 1.173-1.603.61.484 1.165.994 1.165 1.603 0 .619-.762 1.013-.762 1.443 0 .224.17.367.404.367.528 0 .268-1.496 1.361-1.496.645 0 .95.547.95.94 0 .234-.099.547-.25.852m-2.868 3.037a.54.54 0 0 1-.537-.538.54.54 0 0 1 .537-.537c.296 0 .529.242.529.537a.532.532 0 0 1-.529.538m2.168-5.25c-.143 0-.277.018-.403.054V50.86c-1.048-.035-2.284-.242-3.512-.555v2.903a1.353 1.353 0 0 0-.43-.063c-.842 0-1.362.708-1.362 1.362 0 .627.359 1.2.681 1.55.153-.368.296-.672.51-.672.413 0 .225 2.087 1.452 2.141a.811.811 0 0 0-.062.332.96.96 0 0 0 1.917 0 .992.992 0 0 0-.063-.332c1.228-.054 1.013-2.141 1.443-2.141.206 0 .34.287.52.672.322-.35.68-.923.68-1.55 0-.654-.52-1.362-1.37-1.362m27.62-15.66c-.322.456-.877.618-1.236.358-.367-.251-.394-.833-.071-1.281.331-.466.887-.628 1.245-.368.358.251.385.833.063 1.29m-2.339 3.683c-.322.457-.878.627-1.236.367-.358-.25-.394-.833-.063-1.29.314-.457.87-.618 1.237-.368.358.26.385.834.062 1.29m-8.08-20.184.017-.036c.27-.851.789-2.545.798-2.571l.018-.054 1.102.42-.143.063c-.206.081-.475.27-.77.53.205.053.483.035.671-.082l.161-.116-.474 1.21-.063-.117c-.072-.126-.287-.394-.493-.475-.027.08-.027.161-.027.233 0 .439.305.645.61.797.528.278.85.305.985.099a.321.321 0 0 0 .027-.135.33.33 0 0 0-.09-.232.433.433 0 0 0-.52-.09l-.07.027-.01-.081c-.036-.323.072-.502.161-.6a.545.545 0 0 1 .421-.188c.188 0 .359.107.466.286.063-.663.43-1.146 1.057-1.344l.054-.009.018.054c.081.215.117.412.117.6 0 .386-.161.726-.484 1.084.26-.044.502.019.618.189.09.143.117.304.081.456-.036.135-.134.323-.412.475l-.072.036-.018-.08c-.036-.198-.17-.341-.358-.368a.357.357 0 0 0-.359.17c-.134.26.054.538.565.816.618.349 1.012.053 1.245-.287-.18-.027-.448.018-.708.188l-.197.116.789-1.469.026.17c.019.081.081.34.296.556.036-.117.099-.314.099-.529 0-.143-.027-.287-.09-.43l-.08-.17 1.62.94-.187.019c-.287.027-.556.188-.824.484.304.071.555 0 .636-.027l.16-.063-.877 1.425v-.278c0-.287-.09-.528-.197-.654a1.155 1.155 0 0 0-.117.466c0 .26.126.529.493.753.493.295.833.322.995.071.071-.107.053-.269-.045-.394-.108-.143-.296-.188-.493-.125l-.071.026-.01-.08c-.008-.314.108-.493.198-.592a.615.615 0 0 1 .448-.161c.224.018.385.215.474.448.215-.69.592-1.04 1.273-1.165l.053-.018.019.054c.026.125.035.25.035.367 0 .484-.233.914-.672 1.227.215 0 .395.09.484.251a.565.565 0 0 1 .054.457c-.045.135-.152.314-.448.448l-.071.027-.01-.072c-.026-.26-.196-.376-.34-.403-.143-.036-.287.018-.35.135-.116.215.072.474.574.797.332.215.726.403 1.192-.01-.17-.142-.511-.187-.663-.187h-.126l.798-1.013-.01.197v.027a.88.88 0 0 0 .26.592c.063-.278.09-.52.09-.717 0-.08 0-.152-.018-.215l-.018-.152.922.743-.044.045c-.01.009-1.219 1.308-1.82 1.971l-.035.036zm9.774 11.01c.009-.125.044-.313.188-.448l.009-.009a.613.613 0 0 1 .457-.152c.286.01.582.152.806.394.224.233.358.547.35.825a.654.654 0 0 1-.189.448v.009a.7.7 0 0 1-.466.16c-.277-.008-.582-.16-.806-.393-.224-.242-.358-.556-.35-.834m3.557 16.324c.054-.278.251-.547.53-.726.277-.188.59-.26.877-.197.126.027.296.09.412.26.108.17.108.358.08.484-.053.278-.259.546-.528.735-.484.304-1.066.277-1.29-.072a.617.617 0 0 1-.08-.484M73.257 23.724a.993.993 0 0 1-.304.7.536.536 0 0 1-.376.142c-.332-.018-.592-.403-.592-.842v-.071c.019-.287.126-.538.305-.7a.527.527 0 0 1 .385-.143c.17.01.287.108.358.189.162.179.242.448.225.725m5.223-10.733c.278-.528 0-1.335.967-1.335.484 0 .905.475 1.479.663-.932.072-1.774.287-2.446.672m15.23 13.43c.645 1.774 1.927 2.41 2.903 1.953-2.186-.25-.412-3.996-3.234-3.996-.152 0-.314.019-.457.045-.475-.502-1.021-.708-1.828-.708-1.191 0-3.243 1.147-3.243 3.521 0 5.116 5.94 5.564 5.94 10.088 0 1.317-.994 2.132-2.114 2.132-.995 0-1.801-1.12-2.643-2.866-.403-.843-1.264-1.98-2.177-3.172.268.188.582.305.878.305.322.009.618-.099.824-.296.215-.197.34-.484.35-.806v-.045c0-.403-.17-.824-.476-1.147-.331-.34-.752-.546-1.164-.555a1.117 1.117 0 0 0-1.174 1.102v.044c0 .18.027.35.09.52-1.272-1.666-2.464-3.306-2.464-4.202 0-.797.546-1.487 1.218-2.33.036.028.233.135.233.135l.18-.197c.241-.26.734-.806 1.764-1.908l.063-.063h-.009l.25-.26-.635-.51c.17-.385.313-.798.42-1.255.198.825.62 1.344 1.201 1.183-.385-.851.395-1.989-.116-4.067.484.797 1.183 1.227 1.684 1.075-1.308-1.165.394-2.796-1.317-5.313.565.188.932.08 1.174-.197-1.559-.224-.842-2.213-3.584-2.93.681-.116 1.075-.52.977-.878-.726.52-1.362-.976-3.736-.931-.153-.887-.968-1.828-1.909-2.285.18.69.019 1.317-.16 1.828l-7.75-7.598c-.225-.215-.35-.269-.413-.188-.062.08-.062.215.09.376l6.648 8.341c-.502.17-.995.377-1.514.565-.323.116-.574.448-.574.869-1.227.61-2.32 1.37-2.858 1.863-.403.368-.734.457-.376 1.3.143.313-.287 1.101.681.528.627-.376 2.06-1.165 2.276-.672.107.26-.6.6-1.084.78-.484.188-1.013.564-.932.752.071.18.457-.018.484.18.026.223.179.42.376.42s.439-.412.6-.268c.152.134-.08 1.039-.233 1.272.753-.099 1.237-.816 1.254-1.371.019-.564.17-.699.287-.78.117-.071.26.6.099 1.013.403-.09.815-.61.752-1.586.206-.152.412-.278.565-.278.25 0 .752.7 1.47.7 1.316 0 2.042-1.067 2.122-1.569.063-.403.036-.797-.188-1.093.475.377.627.977.627 1.416 0 1.863-3.296 2.741-4.65 4.032-.053.044-.098.09-.152.143l-1.54-.6-.108.34c-.01.018-.027.08-.09.296-.161.528-.502 1.63-.708 2.266l-.08.26.134.072c-.914 1.227-1.657 2.589-1.828 3.996a12.104 12.104 0 0 0-1.12-1.03c.045-.135.072-.278.081-.43.018-.413-.107-.816-.35-1.094a1.066 1.066 0 0 0-.716-.358 1.092 1.092 0 0 0-.887.421 1.194 1.194 0 0 1-.17-.125c-.51-.395-1.138-.86-1.523-1.282-.17-.179-.332-.277-.681-.277-.126 0-.457-.01-.681-.01-.233 0-.367.17-.627.404-.143.125-.636.51-1.129.887.233.233.466.466.68.717l.189.214c.224-.17.394-.295.51-.394.162-.125.377-.161.574-.161.197 0 .475.143.672.439a42.748 42.748 0 0 0 2.428 3.001c-.117.036-.224.081-.332.117-.439.188-1.442.152-1.89.116-.439-.035-.529-.143-.833.332a7.47 7.47 0 0 1-.403.573c-.153.18-.27.385.044.914.457.77 1.595 2.813 1.971 3.727.377.923.816 1.066 1.541 1.362.726.296 1.953 1.003 2.106 1.165l.044-.7c-.214-.223-.904-.474-1.164-.573-.26-.098-.332-.197-.018-.197.313 0 1.182.305 1.791.547-.188-.681-.842-1.443-1.236-1.864-.52-.152-1.048-.152-1.263.019.026.143-.081.322-.296.322-.197 0-.34-.17-.278-.358.072-.206.377-.278.314-.672s-.556-.457-.87-.493c-.438-.636-.949-1.577-1.182-1.953-.233-.376-.09-.591.072-.717.376-.313 1.156.161 2.732.26.547.036 1.246.063 1.953.099.206 1.827.941 3.565 3.486 4.201 1.245.305 2.526 1.219 2.965 2.42-5.089-.1-5.877 1.89-5.877 3.753 0 2.133 1.783 2.007 1.783 3.602 0 1.389-4.274 1.962-5.564 2.16-1.093.16-1.72.402-2.24.922-.528.529-1.057 1.03-2.016 1.989 0 0 .404.098.816.071l.725-.931c.206-.314.359-.574.493-.556.144.027.054.269-.116.6l-.592 1.004c2.5.17 2.67-.762 2.67-1.147s-.618-.645-.26-.878c.359-.242.663-.08.95.26.287.331.385.618 1.075.358 0 0 5.474-2.266 6.164-2.58.618-.278.44-.555.072-.86-.412-.331-.475-.887-.475-1.451 0-1.658.994-2.169 2.768-2.133-.027.278-.053.547-.053.789 0 2.589 3.906 5.106 4.963 5.106.466 0 1.102-.349 1.147 1.21.027 1.147.26 1.953.053 3.27-.206 1.326-.59 1.523-1.38 2.088-.797.555-1.55 2.302-1.88 2.67.349.232.734.26 1.03-.592.241-.699.52-1.2.824-1.37-.305.779-.538 1.917-.681 2.257.994.17 2.616-.735 2.616-1.442 0-.7-.564-.645-.564-1.111 0-.206.26-.44.564-.44.394 0 .699.314.735.467.439-.233.716-.672.698-1.703 0-.394-.018-.824-.035-1.254a.626.626 0 0 0 .09.17c.187.296.51.475.895.51.368.028.753-.08 1.093-.295.386-.26.663-.645.744-1.057a1.126 1.126 0 0 0-.152-.86 1.183 1.183 0 0 0-.735-.484c-.412-.08-.87.018-1.254.269-.359.242-.627.591-.726.959-.08-1.398-.188-2.724-.143-3.262.053-.788.09-1.137-.18-1.254-.26-.116-.555.323-.94.323-.377 0-1.523-1.057-1.523-2.177 0-1.111 1.2-2.554 1.146-4.077-.026-.475.278-.726.466-.295.233.528.574 1.236 1.093 1.81-.313 1.917 1.792 3.789 3.53 2.4-.86.126-1.451-.636-1.827-1.397.143.018.304.036.465.036.09 0 .18 0 .26-.01.61.753 2.554.69 3.046-1.182-.34.394-1.039.69-1.54.627.734-.564 1.11-1.496 1.11-2.49 0-4.874-5.913-5.439-5.913-9.874 0-1.64 1.443-2.696 2.446-2.696.376 0 .672.116.914.286-.385.386-.591.977-.555 1.694.16 3.503 5.877 3.324 5.948 5.017.646-2.545-3.62-1.756-3.771-5.179M73.276 30.39c-.52-.242-.788-.753-.609-1.138.09-.179.251-.269.376-.313.27-.099.592-.063.896.08.296.144.529.386.619.645a.627.627 0 0 1-.01.493.614.614 0 0 1-.376.314c-.269.098-.6.071-.896-.081m-.394-1.926a1.129 1.129 0 0 0-.672.573c-.304.636.08 1.452.842 1.819.421.197.896.233 1.29.098.296-.107.529-.313.663-.573.126-.269.135-.582.027-.887-.134-.394-.457-.735-.878-.932-.42-.206-.887-.242-1.272-.098m10.465 18.259a.613.613 0 0 1-.448-.215c-.188-.197-.305-.511-.296-.843.009-.331.125-.627.331-.824a.592.592 0 0 1 .457-.197c.413.01.753.484.744 1.057-.009.332-.134.637-.331.825a.607.607 0 0 1-.457.197m-.77-2.25c-.297.288-.476.718-.485 1.184v.044c0 .448.162.87.44 1.165.223.233.51.358.806.367.295.01.582-.116.815-.34.305-.287.475-.717.484-1.183a1.69 1.69 0 0 0-.332-1.075c-.233-.313-.555-.493-.905-.502a1.19 1.19 0 0 0-.824.34m-8.69-23.356c0-.25.143-.546.412-.752.224-.18.51-.27.752-.233.108.009.26.053.368.197a.527.527 0 0 1 .098.412c-.026.242-.179.493-.412.663-.385.304-.896.322-1.12.036a.495.495 0 0 1-.098-.323m.098-1.156c-.618.475-.797 1.282-.403 1.792.403.502 1.228.529 1.837.054.34-.26.555-.627.609-1.004a1.048 1.048 0 0 0-.206-.788 1.018 1.018 0 0 0-.708-.385c-.376-.054-.788.062-1.129.331m11.817 29.566c-.564-.099-.958-.52-.887-.932a.663.663 0 0 1 .278-.412c.233-.161.556-.224.878-.161.52.09.905.466.905.842 0 .027-.009.062-.009.09-.08.42-.6.671-1.165.573m-.896-1.765c-.26.188-.439.448-.492.735-.063.349.044.698.304.994.242.278.6.466.995.538.403.071.797.018 1.12-.162.34-.179.573-.474.627-.815.125-.69-.457-1.38-1.3-1.532-.447-.08-.913.01-1.254.242m7.903-1.828a1.478 1.478 0 0 1 2.956 0 1.48 1.48 0 0 1-1.478 1.478 1.48 1.48 0 0 1-1.478-1.478m-.502 0c0 1.093.887 1.99 1.98 1.99s1.98-.897 1.98-1.99c0-1.084-.887-1.98-1.98-1.98s-1.98.896-1.98 1.98M37.503 5.528c.179.278.242.412.25.636-.134-.062-.295-.197-.474-.439l.098 1.076c.126-.197.224-.323.377-.386-.036.69-.314.986-.556 1.03a.453.453 0 0 1-.546-.358c-.054-.313.214-.501.483-.224.054-.645-.465-.636-.69-.358.27-.627.162-1.03-.394-1.362-.34.573-.197.959.242 1.398-.43-.215-.806.143-.43.618.08-.412.44-.323.52.009.08.287-.197.645-.654.78-.654.205-.87-.225-1.03-.574.143-.099.483-.063.86.179l-.323-1.048c-.152.376-.367.52-.627.636-.018-.305.206-.914.206-.914l-1.272.51s.591.278.788.52c-.269.099-.52.144-.896-.018l.502.968c.098-.43.322-.69.493-.726.134.367.277.815-.332 1.138-.43.215-.869.143-1.021-.108-.17-.287.027-.609.367-.367-.062-.6-.582-.6-.735-.143 0-.628-.16-.995-.815-1.174-.161.618.054.994.681 1.254-.358-.045-.735.314-.25.735 0-.385.33-.44.51-.17a.453.453 0 0 1-.152.636c-.197.125-.6.116-1.12-.359.161-.062.322-.035.546.01l-.672-.825c.036.296.019.502-.044.645-.144-.17-.188-.313-.26-.636l-.51.457c.483.305 1.047.77 1.728 1.711.726-.448 2.007-1.066 2.813-1.388.798-.332 2.15-.78 2.975-.968-.17-1.147-.09-1.873.054-2.428zM32.18 4.104l.367.797.466-.555c.018.009.036.018.054.018.045.269.062.744.062 1.003a.581.581 0 1 0 1.165 0 .595.595 0 0 0-.304-.52 4.182 4.182 0 0 1-.646-.6c.01-.026.019-.044.027-.071l.78.063-.314-.825-.582.493c-.01 0-.019-.009-.027-.009l-.045-.86-.806.305.538.636c-.01.018-.027.044-.027.062zm2.93.627a.454.454 0 0 0 0-.645.465.465 0 0 0-.654 0c-.18.18-.18.466.009.654.17.17.465.17.645-.01m1.039-.77a.454.454 0 0 0 0-.644.465.465 0 0 0-.654 0c-.18.179-.18.465.009.645.17.179.466.179.645 0m1.218.197a.454.454 0 0 0 0-.645.454.454 0 0 0-.645 0 .447.447 0 0 0 0 .645c.179.179.466.179.645 0m.107.985c.18.18.466.18.646-.009a.454.454 0 0 0 0-.645.454.454 0 0 0-.646 0 .45.45 0 0 0 0 .654m-5.223.843c.251 0 .457-.206.457-.457a.459.459 0 0 0-.457-.457.459.459 0 0 0-.457.457c0 .25.206.457.457.457m-1.227.08a.46.46 0 0 0 .466-.457.46.46 0 0 0-.923 0c0 .251.215.457.457.457m-.26.547a.459.459 0 0 0-.457-.457.459.459 0 0 0-.457.457c0 .25.206.457.457.457s.457-.206.457-.457m.161 1.218a.459.459 0 0 0-.457-.457.46.46 0 0 0 0 .923.46.46 0 0 0 .457-.466m8.028 3.772c-.645.51-1.496.045-1.882-.61.878-.367 1.9-.77 2.59-1.2-.637.977-.198 1.416-.708 1.81m-.144 6.675c-.833.358-1.469-.368-1.63-.86-.161-.502-.296-.905-.099-1.094.359-.349.466-.627.251-1.066-.242-.51-.788-.268-1.362-.125.27-.493.287-.833-.08-.789-.44.054-.44.762-.69.681-.242-.09-.108-.501-.108-.716.01-.305.197-.404.502-.547l2.392-.905c.314-.107.529-.17.744.045.152.152.528.358.412.582-.117.233-.61-.269-.968 0-.296.224-.036.457.493.618-.51.296-1.066.493-.887 1.04.152.457.421.582.923.582.268 0 .466.394.69.86.233.466.295 1.317-.583 1.693m-4.56-4.82c-.645.054-.627-.564-1.756-.833.797-.161 1.819-.564 2.706-.905.17.744-.135 1.658-.95 1.738m12.382 19.505c-.099-.708-.019-1.371-.825-2.32-.788-.924-3.422-3.818-4.246-4.758.206-.019.457.027.967.51.314.296 1.111 1.067 1.667 1.622a16.448 16.448 0 0 1 3.019-4.981c.233-.251.466-.502.708-.735a5.041 5.041 0 0 0-1.676.726c-.035-.807-.224-1.568-.78-2.079.216-1.129.028-2.49-2.508-4.175 1.3.314 2.07 1.488 3.055.592-.887-.027-.904-1.971-4.12-3.584 1.227-.027 2.185 1.953 3.6.833-1.334-.161-1.773-2.535-4.192-3.27.842.099 1.702.51 2.419-.466-.833.197-1.326-.573-2.222-.645.331-1.04.25-1.684-.108-2.455-.627.036-1.272.233-1.738.618-.071-.573-.663-.609-1.2-.564.027.242.143.6-.126.654-.43.08-1.863.466-2.974.896-1.102.43-2.365 1.218-2.733 1.47-.224.152-.42-.207-.555-.377-.394.331-.77.762-.484 1.192-.618.053-1.299.214-1.872.672 0 .716.59 1.406 1.478 1.8-1.487 1.479-.143 2.84-1.452 4.13 1.837.072 1.524-2.49 2.446-2.849-.09 1.801-1.102 2.124-1.102 4.068 0 1.04.619 2.168.063 2.849 1.55-.421 1.138-3.826 2.096-4.856.17.582.072 1.156-.125 1.738-.538 1.586.063 3.763-.78 4.47 1.38-.134 1.694-2.087 2.617-3.198-.977 2.58-2.043 7.033-3.477 9.12-2.678 3.62-4.255 8.028-6.719 8.028-1.084 0-1.9-.663-1.9-2.034 0-4.112 7.052-6.943 7.052-11.315 0-1.953-1.586-2.697-2.58-2.697-.673 0-1.488.332-2.169.887a2.246 2.246 0 0 0-.824-.179c-2.5 0-1.837 4.48-4.005 4.435.86.484 2.348-.457 3.217-1.711-.359 2.903-4.543 2.132-4.22 5.617.582-2.732 7.248-2.33 7.248-6.468 0-.475-.242-.86-.574-1.174.502-.314.977-.439 1.407-.439.797 0 1.532.6 1.532 1.774 0 3.664-7.015 6.764-7.015 11.27 0 .762.224 1.398.582 1.89-.492.216-1.003.117-1.424-.375-.036 1.155 1.621 1.89 2.67 1.308.224.08.474.125.725.143-.322.869-1.388 1.12-1.953 1.084 1.72 1.353 4.722-.421 4.551-1.953 1.362-1.102 2.231-2.983 3.217-4.22-.063.287-.108.574-.152.851-1.004 1.828-1.954 3.468-2.213 5.878-.215 2.006-1.237 3.825-2.652 3.825-.314 0-.825-.403-1.066-.206-.44.385-.019.78-.019 1.156 0 .573-1.11 1.147-1.11 2.912 0 .797.465 1.756.286 2.284.457-.233 1.057-.985 1.308-1.962.484 2.33-1.003 2.23.072 4.3.125-.68.815-.967 1.236-.68.421.286.224.483-.09.797-.313.314-.6 1.855.816 1.765-.26-.17-.278-.582.42-.726.977-.197 1.264.251 2.303.251.636 0 .815-.842 1.326-.842.51 0 .51.394.332.68.824-.214.976-.662.976-1.119 0-.466-.376-.753-.09-.932.287-.179 1.237.019.86.798.493-.09.753-.44.753-1.04 0-.6-.68-.95-1.326-.842-.107-.376-.663-.573-1.173-.573-1.147 0-.968.905-1.756.905-1.264 0-2.491-1.64-2.491-4.408 0-1.479 1.595-1.855 2.723-2.339 1.13-.492 3.1-1.702 4.292-3.69.923-1.56.959-3.262.833-5.287 1.586.914 1.774 2.231 1.774 3.18 0 1.237-.636 1.739-1.138 1.972-.43.197-.573.116-.618.367-.063.314.152.493.34.591.574.296.457.852.619 1.443.152.591.68 1.532 1.576 2.222.09-.377.072-.968.019-1.73 1.218.6.242 3.056 2.616 3.056-.44-.251-.323-.896-.072-.986.251-.098.574.161 1.03.798.457.645.332.59 1.46.59 1.12 0 .61-.393 1.21-.393.592 0 .547.69.233 1.191.995-.295 1.3-1.057.959-1.845.887-.475 1.353.197 1.478.68.878-.869 0-1.917-.68-1.988.026-.323-.278-.663-.646-.69-.358-.019-.716-.045-1.11-.019-.422.027-.646.619-1.13.619-1.487 0-4.425-2.697-4.425-3.862 0-1.164 2.813-1.872 2.813-3.682 0-2.365-2.33-3.172-4.283-4.686.7-.78 2.733-.967 3.889-.403.125-.663.555-.493.707-1.63.413.994-.134 1.818.287 2.24.332-.475 1.165-.413 1.12-1.65.25.78-.332 1.963.25 2.474.108-.636.485-.753.727-.753.241 0 .447.17.447.547 0 .95-1.137.69-1.137 1.756 0 .448.573.6.573.896 0 .286-.466.734-1.03.358.179.412.555.77 1.048.77.51 0 1.066-.412 1.281-.94.269.68.063 1.433-.43 1.523.52.26 1.738.018 1.595-1.541.69.107 1.057.582.645 1.406.564-.134 1.084-.412 1.084-1.012 0-.466-.457-.78-.385-1.425.071-.52-.645-1.012-.753-1.72m13.583 8.064c-.063 0-.099-.099-.08-.161.026.026.16.08.232.098-.107.019-.08.063-.152.063m-.108.134c-.018.01-.018-.053-.044-.062-.036-.01-.036.026-.019.071-.044-.018-.09-.044-.107 0-.019.045-.019.063.018.099.009.018 0 .054-.018.098-.019.036-.072.099-.135.063-.071-.036-.062-.108-.044-.152.026-.036.044-.072.062-.072.045 0 .063-.009.08-.045.02-.053-.026-.071-.07-.098.044-.01.07-.027.044-.054-.027-.027-.072.018-.072 0-.018-.027.019-.045.027-.054.027-.018.045-.009.063 0l.188.09c.027.018.045.027.045.054 0 .018.009.054-.019.062m-.125-.367c-.027.054-.09.099-.144.045-.053-.045 0-.063-.053-.161.053.044.17.107.197.116m1.693 0c.018.045.063.09.152.108.825.242 1.765-.386 2.258-.233-.645-.224-1.048.161-1.675.036.367-.01.752-.081.77-.18-.287.188-1.084-.125-1.424.09-.027.01-.045.036-.063.054-.26.062-.466.197-.466.376 0 .251.305.314.887.287.574-.018 1.21-.09 1.21.018 0 .143-.404.278-.959.278-.421 0-1.147-.278-2.06-.045v-.018c.071-.152.26-.385.179-.484.071-.036.116-.09.125-.152a.268.268 0 0 0-.152-.072c.026-.036 0-.071-.036-.098 0-.01-.018-.1-.045-.117a.725.725 0 0 0-.17-.116c-.09-.045-.143-.036-.188-.054-.018 0-.099.018-.108.018-.035 0-.09 0-.098.054-.036-.045-.09-.063-.144-.072a.319.319 0 0 0-.018.224c-.071 0-.143.188-.215.17.027.045.045.072.072.072-.063.108-.08.233-.152.242.026.045.053.063.071.08a1.424 1.424 0 0 0-.036.511c-.125-.134-.322-.439-.448-.52-.125-.062-.125-.125-.125-.241 0-.108.044-.206.044-.305-.009-.009-.018-.062-.035-.09-.019-.071-.108-.116-.153-.107.019.018.054.045.063.108a.165.165 0 0 0-.045.053c-.027.036-.036.072 0 .108.01.009.01.009.01.018 0 .01-.01.036-.01.054 0 .018-.009.009-.018 0-.027-.08-.063-.18-.125-.188-.01 0-.036-.01-.054-.01.009 0 .009-.008.009-.008 0-.072-.09-.144-.18-.045.019 0 .063.01.072.027-.009.027-.018.08-.018.08-.009.081.054.108.134.108.019 0 .027.01.027.018 0 .019.01.027.01.036.008.019 0 .019-.01.01-.143-.063-.197.008-.197.062 0 0-.009.045 0 .054-.044.035-.062.107.027.17 0-.027 0-.081.027-.09.009 0 .018-.009.027-.009.009.018.035.027.035.036.01.009.036 0 .081-.027.01-.009.018-.009.027 0 .009.009.027.009.045.018.009.01.009.019 0 .027-.09.09-.081.18.044.206.019 0 .019.01.019.027-.01.17-.233.134-.224-.036-.126.197.098.35.26.242.008-.009.018 0 .018.009.018.036.026.054.062.063 0-.01.01-.036.036-.036.01 0 .01.009.01.018.008.045.017.099.089.108-.019-.036 0-.063.018-.063.027 0-.009.26.242.394a.268.268 0 0 0 .287.215c.044.099.107.197.09.197-.036 0-.332-.027-.413.01a.675.675 0 0 1-.215.08l-.053.018c-.081.01-.162.01-.197-.053-.027-.036-.019-.072-.054-.135-.027-.045-.063-.071-.09-.071-.009 0-.044-.01-.071-.01-.045-.044-.144-.044-.188-.008.035 0 .071.009.107.062a.37.37 0 0 1-.036.063c-.018.027 0 .09.17.161.01 0 .027.009.01.018-.027.01-.063.019-.1-.009-.062-.053-.08-.134-.16-.09 0 .01-.027.019-.054.027 0 0-.009-.009-.018-.009-.081 0-.197.099-.144.188a.12.12 0 0 1 .099-.08.19.19 0 0 1 .018.053c.019.09.054.162.242.036.018-.009.018.01.01.019-.046.071-.171.152-.073.214 0 0 .027.01.045.027 0 .01-.009.01-.009.019-.018.107.099.179.152.179a.17.17 0 0 1-.053-.162.19.19 0 0 0 .053.019c.09-.036.045-.144.1-.18.008-.008.017 0 .017.019.01.036.027.143.135.125.098-.009.152-.09.143-.143-.009-.009 0-.018.01-.009.035.018.062.054.053.117.009-.019.054-.045.071-.081a.15.15 0 0 1-.044.179.242.242 0 0 0 .17-.18c.018.02.036.037.036.063.009 0 .009-.009.018-.009.036.01.099.027.206-.009.009 0 .009.01.009.019-.009.036-.009.08.018.107 0-.018.027-.062.045-.062.027 0-.009.107.054.17.026-.269.17-.161.34-.269.018-.009.018-.009.018.01-.018.026-.026.062-.071.089.062 0 .25-.09.25-.18 0-.035.117-.152.153-.465a.098.098 0 0 0 .072 0c.224-.018.322-.18.546-.188-.054.062-.072.215-.072.313.01.135.162.26.206.305.01.009.01.018-.009.018a1.145 1.145 0 0 0-.16.036c-.18.126-.189-.26-.377-.188-.01 0-.036.018-.054.036-.08 0-.179.09-.161.17a.188.188 0 0 1 .116-.072v.036c0 .036.01.072.081.072.036 0 .045-.027.072-.027.009 0 .018.009.018.027 0 .071-.233-.045-.188.152 0 .009.018.045.027.063-.01.062.054.125.152.09-.018-.019-.062-.045-.045-.072h.045c.01 0 .018-.01.027-.027 0-.01 0-.01.009-.01s.018.01.018.02c0 .008-.018.018-.009.044 0 0 .01.054.019.063-.01.071.09.143.197.071-.027 0-.1-.018-.1-.054.02-.009.046-.018.046-.018a.1.1 0 0 0 .026-.071c0-.019.01-.019.019-.019.018-.009.027-.009.044-.009.027 0 .036.01.045.019.018.044.072.09.143.062.135-.045.019-.152.126-.179a.098.098 0 0 1 .072 0c.107.027.188.036.214-.009.027-.054.01-.233-.098-.296-.063-.026.09-.439-.215-.618.143.027.61.099.69-.018.143.036.295.125.322.161.019.027.027.054-.018.08-.125.082-.108.117-.17.144h-.01c-.044-.036-.089-.098-.125-.125-.044-.019-.09-.01-.098 0-.063-.019-.161.009-.197.09.036-.01.09-.027.143-.01-.009.01-.009.019-.009.027-.009.019 0 .045.027.063l.009.009c.009.009.009.018-.01.018-.062-.009-.205-.018-.17.063 0 .009.01.036.01.053-.045.045-.063.117-.027.162.009-.036.018-.054.09-.081.009.018.026.027.035.036.036.044.108-.063.18-.036.009 0 .018.009 0 .018-.063.027-.135.072-.108.135a.18.18 0 0 1 .027.044c-.027.045-.01.126.08.162 0-.027-.018-.072-.009-.099.027 0 .072-.009.081-.009.135-.072.045-.17.099-.215.044-.045.116.09.224-.009.018-.018.045-.063.018-.108 0-.009 0-.009.01-.009.026.027.044.072.107.045-.081-.071.009-.107.044-.161 0-.009.01-.018.019-.018.044.009.098 0 .143-.072-.054.01-.215-.08-.116-.125.143-.054.17-.126.107-.197-.107-.144-.34-.153-.35-.314.1 0 .189-.009.207-.009.716.009 1.164-.197 1.155-.421-.009-.18-.206-.25-.716-.215-.618.045-1.434.117-1.434-.09 0-.107.135-.188.296-.25m-1.688-2.18c.027-.044.045-.08.072-.08.036 0 .063-.01.08-.045.019-.054-.035-.072-.07-.108.044-.009.07-.035.044-.053-.036-.027-.072.018-.08-.01-.02-.018.017-.035.035-.044.018-.027.036-.018.062 0l.206.09c.019.018.036.026.036.053 0 .019.01.063-.018.072-.018.009-.018-.063-.054-.072-.027-.009-.027.027-.009.081-.053-.018-.098-.045-.116 0-.019.036-.019.063.018.099.018.018 0 .062-.018.098-.019.054-.072.117-.144.08-.071-.044-.062-.116-.044-.16m.242-.52c-.036.063-.108.108-.162.054-.053-.054.01-.072-.062-.17.062.044.188.116.224.116m.152.08c.027.028.18.081.25.1-.116.026-.089.071-.16.071-.072-.009-.108-.108-.09-.17m1.926-.036c.018.045.072.08.152.108.825.241 1.765-.377 2.267-.233-.654-.233-1.057.16-1.684.035.367-.009.752-.08.77-.179-.277.188-1.084-.125-1.424.081-.019.018-.036.027-.045.045-.34-.01-.824-.019-.824.286 0 .636 1.711.27 2.249.27.412 0 .474.053.474.151 0 .153-.618.189-.913.189-.466 0-1.873-.233-2.715-.072.063-.134.215-.314.134-.412a.214.214 0 0 0 .135-.17.28.28 0 0 0-.161-.063c.026-.045-.01-.08-.036-.116-.01-.01-.027-.1-.045-.117-.027-.018-.09-.072-.188-.117-.09-.044-.152-.044-.188-.062-.027 0-.108.027-.117.018-.044 0-.098 0-.107.054a.262.262 0 0 0-.144-.063.31.31 0 0 0-.026.224c-.072.01-.153.197-.224.18.026.053.053.071.071.08-.062.117-.09.251-.161.251.027.036.045.063.063.072-.019.08-.036.17-.036.242l-.08-.019c-.01 0-.02-.009-.028-.009-.107-.009-.161.01-.34-.098-.126-.072-.126-.135-.126-.26 0-.117.054-.215.045-.314 0-.018-.018-.071-.027-.098-.027-.072-.116-.126-.179-.117a.156.156 0 0 1 .072.117c-.019.026-.045.053-.045.053-.027.036-.036.081 0 .117.009.009.009.018.009.027 0 .009 0 .026-.009.044 0 .027-.009.01-.009 0-.027-.08-.072-.188-.143-.197-.01 0-.036-.009-.045 0v-.018c0-.08-.09-.152-.188-.045.018 0 .063.01.072.027 0 .027-.019.08-.019.09-.009.08.063.107.144.116.018 0 .026 0 .026.01.01.018.01.026.019.044 0 .01-.01.01-.019.01-.143-.073-.206 0-.206.062 0 .009-.009.044 0 .062-.053.036-.062.108.027.17 0-.026 0-.08.036-.09.009-.008.018-.008.018-.008.019.009.036.027.036.036.018 0 .045 0 .09-.036h.036c.009.009.026.018.035.027.019.009.019.018.01.026-.108.099-.081.188.044.215.018 0 .027.019.027.027-.018.18-.26.143-.242-.036-.134.206.099.368.278.26.009-.009.009 0 .018.01.009.035.027.062.063.062 0-.01.009-.036.035-.036.01 0 .01.009.01.018.008.045.026.108.09.117-.01-.036 0-.072.026-.072.027 0 .027-.08.242.045a.259.259 0 0 0 .08.09l.162-.036c-.019.125.018.313-.01.313-.035 0-.277-.027-.367.019-.116.062-.412.17-.492.044-.036-.044-.027-.08-.063-.143a.198.198 0 0 0-.099-.08h-.062c-.054-.054-.161-.063-.206-.02.036 0 .08.01.116.073-.018.018-.026.053-.035.053-.019.045-.01.108.179.17.009 0 .027.019.009.027-.027.018-.063.018-.099-.009-.071-.062-.09-.143-.179-.09 0 0-.027.01-.054.027-.009 0-.018-.009-.026-.009-.081-.009-.206.099-.153.197.019-.026.054-.08.108-.09.009.027.018.054.018.063.018.099.063.17.251.036.027-.009.027.009.018.009-.044.08-.17.17-.071.233 0 0 .018.018.044.036-.009 0-.009.009-.009.018-.018.108.099.188.162.18a.194.194 0 0 1-.063-.162c.027.009.054.018.063.018.08-.036.044-.152.098-.188.018-.009.018 0 .027.01 0 .044.027.151.143.143.099-.01.153-.1.135-.162 0 0 .009-.009.018 0a.109.109 0 0 1 .054.117c.018-.019.062-.045.08-.08a.178.178 0 0 1-.044.196c.044-.018.152-.071.179-.197a.266.266 0 0 1 .045.063c0-.01 0-.01.009-.01a.354.354 0 0 0 .214-.008c.019 0 .019.009.019.009-.01.053-.01.098.009.125 0-.018.027-.062.044-.062.036 0 0 .107.072.179.018-.287.25-.215.421-.332.027-.018.027-.009.018.01a.143.143 0 0 1-.071.089c.188.116.385-.143.439-.287a.08.08 0 0 0 .054-.053c.018.026.018.062-.027.08.179.018.161-.125.233-.125.555.053.125-.466 1.03-.314.063.018.17-.045.215-.099-.063.126-.063.368.063.386.053.009.17.053.214.09.01.018 0 .018-.018.018-.062.009-.143.035-.17.044-.188.135-.197-.277-.394-.206-.01.01-.045.027-.054.045-.09 0-.197.099-.18.18a.315.315 0 0 1 .135-.082c0 .019 0 .045-.009.045 0 .036.01.072.081.072.045 0 .054-.019.08-.019.019 0 .028 0 .028.019 0 .08-.251-.045-.215.17.009.009.026.045.044.063-.009.062.045.125.153.09-.019-.02-.054-.045-.054-.072h.054c.009 0 .018-.01.026-.036 0-.01 0-.01.01-.01.008 0 .026.01.026.02 0 .017-.018.026-.018.044 0 .009.009.062.018.071-.009.081.108.153.215.081-.027 0-.098-.018-.107-.054a.097.097 0 0 1 .053-.026c.019-.01.019-.045.019-.072 0-.018.009-.027.026-.027h.054c.018 0 .027.01.036.019a.12.12 0 0 0 .152.062c.135-.045.027-.161.135-.188.018 0 .053-.009.08 0 .108.027.26.018.296-.027.027-.053.009-.242-.108-.313-.062-.036.01-.117-.062-.215a.956.956 0 0 0 .403.098c.296 0 .43-.035.582-.125a.467.467 0 0 1 .359-.027c.035 0 .062.018.035.063-.062.152-.018.17-.071.242-.045.053-.161.009-.242 0-.054 0-.099.035-.099.044-.08.01-.188.081-.206.162.036-.019.09-.054.153-.063v.027c-.019.107.09.143.17.071.009-.018.036 0 .018.01-.071.053-.206.143-.125.187.009 0 .027.019.044.027-.018.063.01.126.063.135-.009-.036-.009-.054.036-.126h.054c.053.01.062-.125.143-.161.018-.009.018-.009.018 0-.045.08-.08.17-.018.188 0 0 .027.009.045.009 0 .063.062.099.16.054-.008-.01-.053-.027-.062-.054.027-.027.063-.063.063-.072.09-.16-.036-.16-.019-.224.019-.08.153-.026.198-.188 0-.027 0-.071-.045-.098v-.01c.045 0 .09.01.125-.044-.116.009-.053-.09-.053-.152 0-.01 0-.019.009-.027.044-.027.08-.08.098-.17-.054.053-.197.116-.179.009 0-.01.009-.081-.116-.063-.189.018-.475-.018-.834-.054-.026 0-.044-.018 0-.026.368-.027 1.12-.054 1.12-.35 0-.134-.09-.322-.68-.286-.646.026-2.08.241-2.08-.126 0-.18.395-.152.61-.143m-2.277-2.188c.018-.045.035-.08.062-.08.045 0 .072-.01.09-.063.018-.045-.027-.072-.08-.1.053-.017.08-.035.053-.053-.036-.036-.08.019-.09-.009-.009-.018.027-.036.045-.053.018-.019.036-.019.062 0l.206.098c.036.018.054.027.054.054-.009.027 0 .062-.018.071-.027.01-.019-.062-.063-.071-.027-.01-.027.027-.009.08-.054-.018-.098-.044-.125.01-.019.035-.01.062.018.098.018.027 0 .063-.009.108-.018.053-.08.116-.161.08-.072-.044-.063-.125-.036-.17m.242-.537c-.036.062-.099.107-.161.053-.054-.062 0-.071-.063-.188a.91.91 0 0 0 .224.135m.161.08c.036.027.188.09.27.108-.126.027-.09.072-.171.072-.08-.01-.108-.117-.099-.18m4.847 1.255c0-.01 0-.027.01-.027.035-.027.07-.08.062-.18-.036.054-.18.126-.188.01 0-.01 0-.09-.126-.063-.197.018-.394-.027-.78-.063-.017 0-.044-.018 0-.018.467-.036 1.094-.09 1.094-.34 0-.206-.233-.34-.905-.34-.663 0-2.733.25-2.733-.126 0-.242.7-.144 1.21-.126.027.036.072.063.152.09.86.242 1.846-.403 2.374-.25-.68-.243-1.11.178-1.765.035.386 0 .789-.08.807-.18-.305.189-1.138-.134-1.487.081a.412.412 0 0 0-.063.054c-.636-.009-1.416-.08-1.416.296 0 .663 2.357.278 2.921.278.556 0 .681.053.681.16 0 .162-.564.207-.878.207-.52 0-2.715-.296-3.593-.027.054-.152.26-.376.162-.493.08-.036.143-.098.143-.17a.323.323 0 0 0-.161-.072c.018-.044-.01-.09-.045-.116-.009-.018-.027-.108-.045-.117-.035-.026-.098-.09-.197-.134-.098-.054-.16-.045-.197-.063-.026 0-.116.027-.125.019-.045 0-.108 0-.117.053a.302.302 0 0 0-.152-.071.34.34 0 0 0-.018.25c-.08 0-.17.207-.242.18.027.053.054.08.071.09-.062.116-.09.26-.16.26.044.062.08.098.107.098-.01.071-.019.134-.019.206l-.116-.045h-.108a.829.829 0 0 0-.107-.027c-.108 0-.188-.179-.367-.277-.126-.081-.135-.144-.135-.287 0-.117.054-.215.045-.323a.308.308 0 0 0-.036-.107c-.018-.072-.116-.135-.17-.117a.166.166 0 0 1 .071.117c-.026.027-.053.062-.053.062-.027.036-.036.081 0 .117.009.009.009.018.009.027 0 .018 0 .027-.01.053 0 .019-.008.01-.008 0-.036-.09-.072-.206-.144-.206-.009-.009-.044-.009-.053-.009v-.018c0-.08-.09-.152-.197-.045.026 0 .062 0 .08.036-.009.027-.018.081-.018.081-.009.09.054.125.143.125.019 0 .036.01.036.019s.01.027.01.036c.008.018 0 .018-.01.009-.161-.063-.224.009-.224.071v.063c-.054.036-.062.116.036.179 0-.018-.009-.08.027-.09.009 0 .018-.009.027-.009.009.018.035.036.035.036.019.009.036 0 .099-.036h.027a.156.156 0 0 0 .044.036c.019.009.01.018.01.027-.108.098-.09.197.044.215.018 0 .018.018.018.035-.009.189-.26.153-.241-.035-.144.215.107.376.286.268.01-.009.019 0 .019.01.009.035.035.062.062.062 0-.009.018-.036.045-.036.009 0 .009.01.009.019.009.053.027.116.098.125-.018-.045 0-.08.019-.08.036 0 .161.277.43.43-.01-.027.107-.072.17-.1a.162.162 0 0 0 .09.126l.044-.027c-.018.126.135.26.108.26-.036 0-.296-.036-.385.019-.126.062-.43.179-.52.044-.036-.044-.027-.09-.063-.152-.035-.045-.071-.08-.107-.08h-.063c-.053-.054-.17-.063-.215-.028.036.01.081.019.117.081a.192.192 0 0 1-.036.063c-.027.036-.009.107.188.17.01.009.027.027.01.036-.028.009-.063.018-.108-.019-.072-.053-.09-.143-.18-.09-.009.01-.035.019-.053.028-.01 0-.019 0-.027-.01-.09 0-.215.108-.161.206a.142.142 0 0 1 .107-.09.233.233 0 0 1 .019.063c.018.099.062.17.268.036.027-.009.019.01.019.018-.054.081-.188.17-.081.233 0 0 .027.027.045.036 0 .01-.01.018-.01.027-.018.108.108.197.17.188a.215.215 0 0 1-.062-.17c.027.009.054.018.063.018.098-.045.045-.161.107-.197.019-.018.019 0 .027.01.01.053.027.16.144.151.116-.018.16-.107.152-.17 0-.009 0-.009.009-.009.045.027.071.072.062.126a.17.17 0 0 0 .081-.081c.027.054.036.125-.045.206.045-.018.162-.072.189-.206a.192.192 0 0 1 .044.072c0-.01.01-.01.01-.019.035.019.116.027.232 0 .01 0 .018 0 .018.01-.009.044-.009.098.01.125 0-.019.035-.063.053-.063.027 0-.009.117.063.18.027-.296.188-.17.376-.296.018-.019.018-.01.018.009-.018.035-.035.071-.08.098.062.054.34-.116.34-.224 0-.036.099-.036.188-.054.188.01.17-.143.242-.134 1.102.143.475-.475 1.756-.35.072.01.099-.07.152-.116-.071.117-.071.376.054.403.063.01.18.045.224.09.01.018.01.018-.009.027a.398.398 0 0 0-.179.045c-.197.134-.206-.305-.421-.225-.01.01-.045.036-.054.045-.09 0-.206.099-.179.188a.194.194 0 0 1 .135-.08v.044c-.01.036.009.072.08.072.036 0 .054-.027.08-.027.01 0 .02.018.02.027 0 .09-.26-.045-.207.179 0 .009.019.054.036.072-.009.062.045.125.161.098-.018-.027-.062-.054-.053-.09.026.01.044.01.053.01.01 0 .019-.01.027-.036 0-.01 0-.01.018-.01.01 0 .019.01.019.019s-.019.027-.019.045c0 .009.019.062.027.071-.018.081.108.17.224.09-.036-.009-.107-.027-.116-.063.018-.009.053-.018.053-.026.019-.01.027-.036.027-.072 0-.027.01-.027.019-.027h.053c.027-.009.036.01.045.019.027.044.08.09.161.062.144-.045.019-.17.135-.197.026 0 .062-.009.09 0 .107.027.277.027.304-.027.036-.053.018-.26-.108-.331-.062-.036.01-.117-.053-.224a.931.931 0 0 0 .412.107c.304 0 .403-.044.555-.134.153-.09.323-.045.377-.036.035.01.062.027.044.08-.044.153 0 .171-.036.243-.035.062-.16.009-.26.009-.044-.01-.09.036-.09.044-.08.01-.17.081-.178.17.027-.018.08-.062.143-.071v.036c.01.107.126.143.197.071.01-.018.036 0 .018.01-.062.053-.188.152-.09.196 0 0 .028.01.045.027-.009.063.036.135.09.144-.018-.036-.018-.063.018-.135h.054c.063.01.045-.134.126-.17.009-.009.018-.009.018.009-.036.072-.054.17.009.188 0 0 .036.01.054.018.018.054.09.099.188.054-.027-.009-.072-.036-.081-.063.018-.026.054-.062.054-.071.062-.17-.081-.17-.072-.242.01-.08.161-.027.18-.188a.118.118 0 0 0-.063-.108c.044 0 .09.01.116-.062-.116.009-.072-.09-.08-.153m-13.417-5.117c-.08 0-.116-.099-.098-.17.027.026.188.09.26.107-.117.027-.09.072-.162.063m-.125.152c-.018.009-.018-.063-.054-.072-.035 0-.035.027-.009.081-.053-.018-.098-.045-.125 0-.027.045-.019.072.018.108.018.018 0 .062-.018.107-.019.045-.08.117-.152.08-.081-.044-.063-.125-.045-.17.027-.044.045-.08.071-.08.045 0 .072-.009.081-.054.018-.053-.027-.071-.071-.107.044-.01.071-.036.044-.063-.027-.027-.08.018-.09 0-.008-.027.027-.045.045-.054.019-.026.036-.018.072 0l.206.099c.027.018.045.027.045.054s.009.062-.019.071m-.134-.403c-.036.054-.108.108-.161.054-.063-.063 0-.072-.072-.188.072.044.197.125.233.134m.358 1.783.108-.027c-.01.01-.01.045-.01.045.189.009.171-.18.252-.17 1.093.152.466-.466 1.756-.34.062 0 .09-.036.143-.081-.072.125-.072.331.054.358.062.009.188.045.224.099.018.009.009.018 0 .018a.572.572 0 0 0-.188.045c-.197.134-.206-.305-.412-.215-.019 0-.045.027-.063.036-.09 0-.197.107-.18.188a.24.24 0 0 1 .135-.072v.045c-.009.035.01.071.081.071.045 0 .054-.027.08-.027.01 0 .028.01.028.027 0 .081-.27-.053-.215.18 0 0 .026.044.035.062-.009.072.045.134.162.099-.019-.019-.063-.045-.054-.081h.054c.009 0 .026-.01.026-.036 0 0 .01-.009.019-.009.009.01.018.01.018.018 0 .019-.018.027-.018.054l.018.063c-.009.09.117.17.233.09-.036 0-.108-.019-.117-.063l.054-.018c.018-.019.027-.045.027-.081 0-.018.009-.018.018-.018.019-.01.036-.01.063-.01.018 0 .027.01.036.019.018.054.08.098.161.071.143-.053.027-.179.134-.206.027 0 .063-.009.09 0 .117.027.278.027.314-.026.026-.054.009-.251-.117-.332-.062-.027.01-.116-.062-.215.125.045.26.099.42.099.314 0 .386-.045.53-.126.152-.09.322-.053.367-.044.035.009.071.027.062.08-.036.162.018.18-.018.251-.027.063-.161.01-.251 0-.054 0-.099.036-.099.045-.08.018-.17.08-.16.18a.286.286 0 0 1 .134-.082.09.09 0 0 0 .009.036c.009.108.134.144.197.072.009-.01.035 0 .018.009-.054.053-.17.161-.08.197.008 0 .035.018.062.027-.01.062.044.134.098.143-.018-.036-.026-.054 0-.126h.063c.063 0 .036-.134.108-.179.009-.009.018 0 .018.01-.027.071-.045.17.027.196 0 0 .035.01.053.01.019.053.099.107.188.053-.018-.009-.071-.036-.08-.063.018-.026.044-.062.044-.071.054-.161-.09-.17-.09-.233 0-.08.162-.027.162-.197 0-.027-.009-.08-.072-.099v-.009c.045 0 .09.01.117-.053-.126.009-.08-.099-.099-.162-.009-.009-.009-.018 0-.026.045-.027.072-.081.054-.18-.036.063-.17.126-.188.01 0-.01-.01-.081-.126-.063-.206.018-.349-.018-.734-.054.394-.036 1.093-.107 1.093-.367 0-.206-.233-.332-.896-.332-.672 0-2.742.242-2.742-.134 0-.233.7-.143 1.21-.126a.298.298 0 0 0 .152.1c.86.241 1.774-.341 2.392-.135-.492-.44-1.129.053-1.783-.081.386-.009.789-.08.807-.188-.296.197-1.138-.134-1.487.09a.266.266 0 0 1-.063.044c-.627 0-1.407-.08-1.407.296 0 .672 2.348.278 2.912.278.564 0 .68.062.68.17 0 .161-.555.197-.877.197-.52 0-2.715-.287-3.593-.027.054-.152.26-.367.162-.484.08-.035.143-.107.143-.17a.255.255 0 0 0-.161-.08c.026-.036-.01-.081-.045-.117-.009-.01-.027-.099-.045-.117-.036-.026-.098-.09-.197-.134-.098-.045-.161-.045-.197-.054-.027-.009-.116.019-.125.019-.045-.01-.108-.01-.117.053-.036-.044-.09-.062-.152-.071-.036.071-.045.134-.018.242-.081 0-.17.206-.242.179.027.062.053.09.071.09-.062.116-.09.26-.16.268.026.036.044.063.07.08a.73.73 0 0 0-.026.198l-.072-.018c-.044-.01-.09-.01-.107-.01a.331.331 0 0 0-.108-.018c-.107-.009-.179-.179-.367-.286-.126-.072-.135-.144-.135-.278 0-.117.054-.224.054-.332-.009-.009-.027-.071-.036-.098-.026-.08-.125-.135-.179-.126.027.027.063.054.072.126-.027.018-.054.054-.054.062-.027.027-.036.072 0 .117.01.009.018.009.018.018a.122.122 0 0 1-.018.054c0 .027-.009.009-.009 0-.027-.08-.071-.197-.143-.206-.01 0-.045-.009-.054 0v-.018c0-.09-.09-.153-.197-.054.027 0 .063.009.08.036a.519.519 0 0 0-.017.09c-.01.09.053.125.152.125.018 0 .027 0 .027.009 0 .018.009.027.009.045.009.009 0 .009-.01.009-.152-.072-.223 0-.223.071v.054c-.054.045-.063.125.035.179 0-.018 0-.08.036-.09.01 0 .01 0 .018-.009l.045.045c.01 0 .036 0 .09-.036.009-.009.018-.009.027 0a.203.203 0 0 1 .044.027c.019.009.01.018.01.027-.108.098-.09.197.044.224.018 0 .018.009.018.027-.009.188-.26.152-.242-.036-.134.215.108.376.287.269.018-.01.018 0 .027.009 0 .036.027.062.063.071-.01-.009.009-.035.035-.035.01-.01.01 0 .019.018 0 .045.018.107.09.116-.019-.035 0-.071.018-.071.035 0 .179.26.448.403.044-.018.125-.018.152-.08 0 .026.027.044.054.062.009.125.098.286.071.286-.045 0-.475-.026-.555.027-.126.063-.44.18-.529.054-.027-.054-.018-.09-.062-.152-.027-.054-.072-.081-.1-.081 0-.009-.044-.009-.07-.009-.054-.054-.17-.063-.207-.027.036.01.072.018.117.08a.233.233 0 0 0-.036.063c-.027.045-.009.108.188.18.01 0 .027.018.01.026-.028.019-.072.019-.108-.009-.081-.062-.09-.143-.18-.098-.009.009-.035.018-.062.036-.01-.01-.018-.01-.027-.01-.08-.008-.215.1-.152.198a.161.161 0 0 1 .107-.09c0 .027.019.054.019.063.018.098.062.179.268.044.019-.018.019.01.01.01-.045.08-.18.17-.081.241.009 0 .026.018.053.036-.009 0-.009.009-.009.018-.018.108.099.197.17.197-.026-.036-.08-.098-.062-.179.018.01.054.027.054.018.098-.035.053-.16.107-.197.019-.009.027 0 .027.019.009.044.027.152.152.143.108-.009.162-.099.153-.161 0-.01 0-.018.009-.01.035.02.071.063.062.117a.166.166 0 0 0 .08-.08.18.18 0 0 1-.053.206.268.268 0 0 0 .197-.197c.019.018.036.044.036.062.009-.009.009-.009.018-.009.036.018.117.018.233-.009.01 0 .01.01.01.01-.01.053-.01.098.018.125 0-.01.026-.063.044-.063.036 0 0 .117.072.188.018-.296.367-.143.555-.269.027-.018.027-.009.019.01a.197.197 0 0 1-.081.098.466.466 0 0 0 .215-.072c.125-.053.34-.152.322-.224m.759-2.876c.009 0 .009 0 .009-.01 0 .01 0 .01-.01.01m-.546-1.174c.027-.045.045-.08.063-.08.045 0 .072-.01.09-.054.018-.045-.027-.072-.072-.108.045-.009.072-.036.045-.054-.027-.026-.08.019-.09-.009-.009-.018.027-.035.045-.053.018-.019.036-.01.062 0l.215.098c.027.019.045.027.045.063 0 .018.009.063-.018.063-.019.009-.019-.063-.054-.063-.036-.009-.036.027-.018.072-.054-.01-.099-.036-.126.009-.018.035-.009.071.019.107.018.018.009.054-.01.108-.018.044-.08.107-.152.071-.08-.036-.071-.125-.044-.17m.25-.537c-.035.062-.107.107-.17.053-.053-.053.01-.071-.062-.179.062.045.188.126.233.126m.16.09c.028.018.18.08.26.098-.116.027-.089.071-.17.071-.071-.009-.098-.107-.09-.17m-1.056.6c-.072-.062-.162-.17-.287-.25-.135-.072-.135-.144-.126-.278.01-.117.072-.224.072-.332-.009-.009-.027-.071-.036-.098-.009-.08-.107-.135-.17-.126.027.027.063.054.072.126l-.063.062c-.027.027-.036.072 0 .117.01.009.01.009.01.018a.122.122 0 0 1-.02.054c0 .027-.008.018-.008 0-.027-.08-.054-.197-.135-.206 0 0-.035-.009-.053 0 .009-.009.009-.018.009-.018 0-.09-.09-.153-.197-.054.018 0 .062.009.08.036a.23.23 0 0 0-.026.09c-.01.09.044.125.143.125.018 0 .027 0 .027.009.009.018.009.027.009.045.009.018 0 .009-.01.009-.152-.063-.223 0-.232.071v.063c-.054.036-.072.116.027.179 0-.027 0-.08.035-.099.01 0 .019 0 .027-.009.01.019.036.036.036.036.009.01.036 0 .09-.027.018-.009.026-.009.035 0 .019.01.027.019.045.027.01.01.01.019 0 .027-.107.099-.098.197.036.224.018 0 .018.018.018.027-.018.188-.269.152-.242-.036-.152.215.081.376.278.278.01-.01.01-.01.018 0 .01.036.027.071.063.071-.009-.009.009-.044.036-.044.018 0 .018.018.018.027 0 .044.01.107.08.116-.008-.036.01-.072.028-.072.035 0 .116.144.268.233.126.054.215.188.296.099-.018.134.108.278.072.278-.036 0-.377-.019-.466.027-.126.071-.44.179-.52.053-.036-.044-.027-.09-.071-.161-.027-.045-.063-.08-.1-.08h-.07c-.045-.054-.162-.063-.207-.019.036.009.081.009.117.072-.018.026-.027.062-.036.062-.027.045-.009.108.188.18.01 0 .027.018.01.026-.028.018-.072.018-.108-.018-.081-.054-.09-.144-.18-.09-.009.01-.035.018-.062.036-.01-.01-.01-.01-.018-.01-.09-.008-.225.1-.162.198a.142.142 0 0 1 .108-.09c.009.027.009.054.018.063.018.098.063.179.269.045.018-.019.018 0 .018.009-.053.09-.188.17-.08.233 0 .009.018.026.044.044-.009 0-.009.01-.009.019-.018.116.108.197.17.197-.026-.036-.08-.09-.062-.18a.381.381 0 0 0 .054.019c.098-.036.053-.162.107-.197.018-.01.036 0 .036.018 0 .045.027.161.143.143.108-.009.161-.098.153-.16 0-.01 0-.02.009-.01.044.018.071.063.062.126.018-.019.063-.045.08-.09a.19.19 0 0 1-.044.206c.045-.019.161-.072.188-.197a.266.266 0 0 1 .045.062s0-.009.009-.009a.413.413 0 0 0 .233-.009c.009 0 .009.01.009.019-.01.044-.01.09.018.116 0-.018.027-.062.045-.062.036 0 0 .116.071.188.019-.305.189-.18.368-.305.027-.009.027 0 .018.009-.009.036-.027.08-.08.099.205.053.528-.26.573-.395.09-.009.161-.018.206-.018.582.054.17-.528 1.12-.358.062.009.17-.063.233-.108-.072.126-.081.376.053.403.063.01.18.045.224.09.01.018 0 .027-.009.027a.508.508 0 0 0-.179.045c-.197.134-.206-.305-.42-.225-.01.01-.046.036-.063.054-.081 0-.197.09-.18.18a.303.303 0 0 1 .144-.081v.053c-.01.027 0 .072.08.072.036 0 .045-.027.081-.027.01 0 .018.01.018.027 0 .08-.26-.045-.214.17 0 .01.026.054.044.072-.009.062.045.134.161.09-.018-.01-.062-.036-.053-.072h.044c.019 0 .027-.01.036-.036 0-.009 0-.009.01-.009.018 0 .026.009.026.018 0 .019-.018.027-.018.054 0 0 .009.054.018.063-.009.09.108.17.224.09-.027-.01-.108-.019-.117-.063.027-.01.054-.019.063-.019.018-.018.027-.044.027-.08 0-.019.009-.027.018-.027h.054c.027 0 .036.009.036.018.026.045.09.099.17.063.143-.045.018-.17.134-.197.019 0 .054-.01.09 0 .107.027.278.027.305-.027.026-.054.018-.25-.108-.323-.072-.035.009-.125-.063-.224.126.045.251.099.421.099.305 0 .386-.045.52-.125.152-.1.323-.045.367-.036.045 0 .081.018.063.071-.036.161.018.17-.018.251-.027.054-.162.01-.251 0-.054 0-.09.036-.09.045-.08.009-.17.08-.17.17.027-.018.08-.063.143-.072v.036c.019.108.135.144.206.072.01-.01.036 0 .019.018-.063.045-.17.152-.081.188.009 0 .036.018.054.027 0 .072.044.134.098.143-.018-.035-.018-.053.01-.134.018.009.044.009.053.009.072 0 .036-.134.116-.18.01-.008.01 0 .01.01-.027.08-.036.17.026.188.01.009.036.009.063.018.018.054.09.099.188.054a.207.207 0 0 1-.09-.063c.027-.027.045-.062.054-.071.045-.162-.09-.17-.09-.242 0-.081.152-.019.152-.188 0-.027-.009-.081-.062-.099l-.01-.009c.046 0 .1.01.117-.054-.116.01-.08-.098-.098-.16 0-.01 0-.02.009-.028.036-.026.062-.08.053-.179-.035.054-.179.126-.188.01 0-.01-.009-.09-.134-.063-.197.018-.34-.027-.726-.054.44 0 1.084-.117 1.084-.367 0-.206-.224-.332-.896-.332-.671 0-2.177.242-2.177-.134 0-.18.287-.17.645-.153.027.036.072.063.144.081.869.251 1.881-.197 2.41-.054-.618-.465-1.129.019-1.792-.125.385 0 .52-.108.538-.215-.296.197-.86-.099-1.219.125-.018.01-.036.027-.054.045-.474-.018-.86-.018-.86.296 0 .672 1.801.287 2.357.287.564 0 .69.053.69.16 0 .153-.565.198-.879.198-.492 0-1.962-.26-2.849-.072.072-.152.233-.34.144-.439.08-.036.134-.107.143-.17a.305.305 0 0 0-.161-.08c.018-.036-.01-.081-.045-.117-.009-.01-.027-.099-.045-.117-.035-.027-.098-.09-.197-.134-.098-.045-.16-.045-.206-.054-.018-.009-.107.018-.116.018-.045-.009-.108-.009-.117.045a.291.291 0 0 0-.152-.062.352.352 0 0 0-.027.241c-.071 0-.16.206-.233.189.027.053.054.071.072.08-.063.117-.09.26-.17.269.054.063.09.09.116.099-.018.09-.018.179-.026.25l-.144-.044zm2.733-3.162c-.063 0-.099-.099-.08-.152.026.018.16.071.232.09-.107.026-.08.062-.152.062m-.099.134c-.026.01-.018-.062-.053-.062-.036-.01-.036.027-.01.071-.053-.018-.098-.044-.116 0-.018.036-.009.063.018.099.01.018 0 .054-.018.099-.018.035-.071.107-.134.062-.072-.036-.063-.107-.036-.152.018-.036.036-.072.054-.072.044 0 .062-.009.08-.044.019-.045-.026-.072-.062-.1.036-.008.062-.035.036-.053-.027-.027-.072.019-.081 0 0-.027.027-.036.045-.053.009-.019.035-.01.053 0l.197.09c.019.018.036.026.036.053 0 .018.009.054-.009.063m-.134-.368c-.027.054-.09.099-.144.045-.053-.045 0-.063-.053-.161.053.044.17.116.197.116m1.836 1.013c.717 0 1.075-.233 1.075-.457 0-.807-1.98-.314-1.98-.798 0-.071.054-.143.144-.206 1.003-.071 1.039-.788 1.747-.922-.86-.117-.977.555-1.344.582.197-.09.269-.323.25-.412-.17.242-.555.26-.77.528-.027.036-.044.099-.036.135-.125.08-.206.179-.206.295 0 .753 2.007.233 2.007.789 0 .188-.35.313-.896.313-.412 0-.716-.295-1.478-.098 0-.126.251-.368.152-.484.072-.036.126-.09.135-.161a.367.367 0 0 0-.152-.063c.026-.036-.01-.071-.036-.107-.01-.01-.027-.09-.045-.108-.027-.018-.09-.072-.18-.117-.08-.044-.142-.044-.178-.053-.019-.01-.099.018-.108.018-.044 0-.098 0-.098.045a.412.412 0 0 0-.144-.063c-.036.072-.044.126-.018.224-.072 0-.152.188-.215.17.027.045.045.072.063.072-.054.108-.081.233-.153.242.019.036.036.054.054.063-.063.152-.09.358-.107.448-.045-.036-.1-.09-.153-.126-.116-.063-.116-.116-.098-.233.018-.107.09-.188.098-.287a.455.455 0 0 0-.027-.08c-.009-.072-.09-.117-.152-.108.027.027.063.045.054.108-.027.018-.054.036-.054.044-.027.027-.045.063-.018.099.009.009.009.018.009.027a.145.145 0 0 1-.018.045c-.01.009-.01 0-.019 0-.009-.081-.036-.18-.098-.189h-.054v-.018c.018-.071-.063-.125-.18-.045.02.01.063.01.072.036a.373.373 0 0 0-.026.072c-.019.071.035.107.125.107.018 0 .027.01.027.019v.027c.009.018 0 .009-.01.009-.134-.054-.205 0-.223.053 0 .01-.01.045-.01.054-.053.036-.07.099.01.161.009-.027.009-.071.044-.08.01-.01.019-.01.027-.01.01.01.027.027.036.027.01.01.036.01.08-.018a.027.027 0 0 1 .037 0c.009.009.026.018.035.027.01.009.01.009 0 .018-.107.09-.107.17.019.197.018 0 .018.01.018.018-.036.162-.269.135-.233-.026-.161.179.054.322.242.233.009-.01.018 0 .018.009.01.026.019.053.045.053 0-.009.018-.036.045-.027.018-.009.018 0 .018.01-.009.044 0 .098.063.107 0-.036.009-.063.035-.063.027 0 .081.135.18.251a2.3 2.3 0 0 1-.448.135c-.036 0-.27-.027-.34.009-.117.062-.395.17-.476.053-.027-.044-.018-.08-.053-.143a.23.23 0 0 0-.099-.072h-.063c-.044-.053-.152-.053-.188-.018.036 0 .072.009.108.063a.15.15 0 0 0-.027.062c-.027.036-.009.09.161.152.01.01.027.019.01.027-.028.01-.063.019-.1-.009-.062-.053-.07-.134-.16-.08 0 0-.027.009-.054.026 0-.009-.01-.009-.019-.009-.08-.009-.197.09-.143.18.01-.019.036-.072.09-.081.009.018.018.054.018.054.027.09.063.16.25.035.02-.009.02.01.01.019-.045.071-.17.152-.072.215.01 0 .027.018.045.026-.009.01-.009.019-.009.019-.018.107.09.179.152.179a.194.194 0 0 1-.053-.161.502.502 0 0 0 .044.018c.09-.036.054-.143.099-.18.018-.008.027 0 .027.02.009.035.027.142.134.125.099-.01.152-.09.135-.144 0-.009 0-.009.018-.009a.12.12 0 0 1 .045.117.236.236 0 0 0 .08-.081c.019.054.027.117-.044.18a.243.243 0 0 0 .17-.171c.018.009.036.036.036.054.009 0 .009-.01.009-.01a.354.354 0 0 0 .214-.008c.01 0 .019.009.01.018-.01.036-.01.08.018.108 0-.019.027-.054.036-.054.035 0 0 .098.062.161.027-.269.17-.161.34-.269.019-.018.019 0 .019.01-.018.035-.036.07-.072.089.063 0 .206-.063.206-.152 0-.027.045-.063.108-.09.053.009.152-.027.188-.09.009.027.036.108-.01.126.18.009.36-.188.43-.206.377-.08-.232-.35.538-.305a.344.344 0 0 0 .225-.08c-.063.116-.063.349.053.367a.58.58 0 0 1 .206.08c.01.01 0 .019-.009.019-.071.009-.143.036-.17.045-.18.125-.18-.27-.376-.198a.28.28 0 0 1-.054.036c-.072 0-.18.09-.161.17.027-.018.062-.062.125-.071v.045c0 .026.01.062.072.062.036 0 .045-.018.071-.018.019 0 .027 0 .027.018 0 .08-.242-.045-.197.161 0 .01.027.045.036.063-.009.063.045.117.143.09-.018-.019-.053-.045-.044-.081.018.009.044.009.044.009.01 0 .019-.009.027-.036 0-.009.01-.009.01-.009.017 0 .026.01.026.027 0 .009-.018.018-.018.036 0 .009.009.054.018.062-.009.072.099.153.206.081-.027-.009-.099-.018-.108-.054a.49.49 0 0 0 .045-.026c.018-.01.027-.036.027-.072 0-.018.009-.018.018-.018h.054c.027 0 .036 0 .036.018.018.036.071.08.152.054.125-.045.018-.153.116-.18.027 0 .054-.008.081 0 .099.027.251.027.278-.026.027-.045.018-.233-.099-.296-.062-.027.01-.107-.053-.197.107.045.224.09.376.09.278 0 .018-.045.134-.117.135-.08.296-.036.34-.027.037 0 .063.019.054.063-.035.143.019.161-.018.224-.027.054-.152.01-.233.01-.044-.01-.08.026-.08.035-.072.009-.153.072-.144.152.018-.009.063-.053.117-.062.009.009.009.026.009.035.009.09.116.126.179.063.009-.009.036 0 .018.01-.054.044-.152.142-.072.17.01 0 .027.018.054.026-.009.063.036.125.08.134-.008-.035-.017-.053.02-.125.008 0 .035.009.044.009.054 0 .036-.125.098-.161.01-.01.019-.01.01.009-.019.071-.036.152.035.17 0 0 .027.009.045.009.018.063.09.099.17.054-.018-.01-.062-.027-.071-.063.018-.018.035-.054.044-.063.036-.143-.09-.152-.09-.206 0-.08.153-.026.153-.179a.103.103 0 0 0-.063-.09c-.009 0-.009-.008-.009-.008.045 0 .081.009.108-.045-.108.009-.08-.09-.09-.143-.009-.01-.009-.019 0-.027.036-.027.063-.072.054-.161-.036.053-.161.107-.17.009 0-.01-.01-.081-.117-.063-.188.018-.278-.072-.618-.108-.027 0-.045-.018 0-.018m-.422 9.405-.134-.019c-.153-.009-.34.063-.359.27-.018.205.126.313.314.322l.098.009-.224 1.469-1.451-2.079c.68-.268 1.227-.564 1.514-.564.242 0 .287.108.242.591m-2.84.323c.25-.054.502-.135.734-.215l1.712 2.464-.162 1.03zm2.051 4.757-3.243-4.659c.108.01.206.01.296.01.17 0 .331-.01.502-.036l2.598 3.727c-.054.367-.117.698-.153.958M51 36.75l3.557 5.107c-1.9-.69-3.799-2.446-3.557-5.107m5.286-.403-.161-.009v-.152c.027-.574-.314-.995-.923-.995-.546 0-1.604.708-3.082.708-.627 0-1.38-.304-1.845-.573l-.189.439c.01-.019.01-.036.01-.045a.363.363 0 0 0-.368-.367.363.363 0 0 0-.367.367c0 .197.161.367.367.367a.389.389 0 0 0 .287-.143l-.188.439c.062.027.125.054.197.08-.215 2.24 1.388 5.072 4.31 5.95.43-.126.93-.045.93.43 0 .295-.151.42-.411.42-.17 0-.287-.098-.287-.214 0-.197.34-.08.385-.215.036-.18-.071-.26-.277-.26-.206 0-.511.135-.511.475 0 .394.322.636.663.636.331 0 1.012-.18.914-.976.16 0 .34-.019.376-.18l.036-.448-.161-.026.125-5.125.117.009c.188.018.349-.072.358-.269.018-.206-.143-.304-.305-.322m7.723-4.74v-.01c.125-.062.224-.143.269-.25a.3.3 0 0 1-.287-.036c.107-.054.224.009.107-.17-.116-.188-.197-.188-.313-.063-.117.126-.896-.027-.896-.618v.01a.6.6 0 0 0 .26.214c.376.233.743.09.78-.224.026-.323-.279-.475-.619-.753a7.403 7.403 0 0 1-.34-.313c-.108-.233-.01-.44-.314-.851a1.127 1.127 0 0 0-.099-.368c-.152.27-.215.807.188 1.246.323.349 1.022.698.995 1.003-.01.08-.072.161-.197.161-.152 0-.305-.098-.466-.224-.018-.027-.045-.044-.063-.071v.009c-.295-.278-.555-.672-.725-.896-.323-.412-.18-.816-.126-1.156.224-.323-.143-.959-.358-1.12 0 0 .045-.143-.018-.331-.045.035-.144.026-.197.026-.054-.125-.081-.143-.162-.16-.143-.02-.134-.108-.152-.153-.08.072-.107.143-.188.143-.125.01-.17 0-.215.045-.08.063-.125.09-.242.08-.125 0-.125.081-.116.17.009.063.009.153.09.189.018.009.026.018.044.018l.099.126.071-.135c.063-.044.233-.062.27.063.017.08.026.107-.073.116-.116.019-.179.019-.286.019-.072 0-.072.098-.072.16.01.082.09.117.251.082.152-.045.43-.072.43.062 0 .35-.421.323-.502.744a.623.623 0 0 1-.233-.224 1.45 1.45 0 0 0-.304-.368 1.332 1.332 0 0 0-.296-.241c-.134-.081-.134-.153-.134-.296 0-.117.053-.233.044-.35a.509.509 0 0 0-.035-.107c-.019-.072-.126-.135-.188-.117a.173.173 0 0 1 .08.126c-.027.018-.053.054-.053.062-.027.036-.045.081 0 .126.009.009.009.009.009.018 0 .018-.01.036-.01.063 0 .018-.008.009-.018 0-.027-.09-.071-.215-.143-.224h-.063c0-.01.01-.01.01-.019 0-.09-.108-.16-.216-.053.027 0 .072.009.09.035a.23.23 0 0 0-.027.09c-.009.099.063.135.162.135.018 0 .026 0 .026.018.01.009.01.027.019.036 0 .018-.01.018-.019.009-.16-.072-.233.009-.233.08v.063c-.053.045-.062.125.036.188 0-.027 0-.09.036-.099.009 0 .018-.009.027-.009.009.019.036.036.045.036.009.01.035.01.09-.027.008-.009.018-.018.035 0 .018.01.027.019.045.027.018.01.018.019 0 .036-.099.099-.081.197.053.224-.062.117-.25.063-.241-.107-.135.215.09.385.277.304 0 .08 0 .224.027.233 0-.018.01-.045.045-.045a.02.02 0 0 1 .018.019c0 .054.018.125.09.125-.01-.035 0-.062.018-.071.036.053.072.107.099.16.09.162.277.583.69.754-.215.125-.359.313-.493.474-.117.117-.287.233-.394.17-.045-.035-.054-.071-.117-.125-.054-.027-.107-.045-.134-.036-.01.01-.045.019-.072.036-.072-.036-.188.01-.215.063.045-.01.09-.019.152.026 0 .027-.009.063-.009.072-.009.054.036.108.251.09.019 0 .036.009.027.027-.027.018-.062.044-.116.035-.099-.026-.144-.107-.206-.018-.01 0-.027.036-.045.054h-.027c-.08.026-.17.188-.071.268a.17.17 0 0 1 .071-.134c.01.018.036.045.045.045.062.098.134.152.269-.072.018-.018.026 0 .026.01-.018.098-.107.241.019.259.009 0 .036.009.062.018v.027c.027.117.188.143.251.108-.045-.01-.107-.054-.134-.135.027 0 .053-.009.062-.018.072-.072-.018-.17.019-.224.009-.018.026-.018.026 0 .036.036.1.143.215.071.054-.026.081-.09.09-.134.143-.063.269-.108.376-.072-.018-.071.072-.179.224-.224.153-.035.225.01.27.054a.823.823 0 0 1 .16-.269c-.018.61.807.6 1.004.959-.251-.099-.529-.152-.681-.117-.197.036-.555.215-.6.457-.036.188.161.52.358.654-.242.045-.322-.035-.546.027-.01 0-.019-.009-.019-.009-.188.027-.215-.304-.439-.224-.009.01-.053.036-.062.045-.09 0-.215.107-.188.197.026-.027.071-.072.143-.08a.176.176 0 0 1-.009.044c0 .036.018.071.09.071.044 0 .053-.018.09-.018.018 0 .026.01.026.027 0 .08-.278-.054-.233.188 0 0 .027.045.045.063-.01.071.045.143.17.107-.018-.018-.071-.045-.054-.09.019.01.045.01.054.01.01 0 .027-.01.027-.045h.018c.01 0 .019.009.019.018s-.019.027-.019.045c0 .009.019.071.027.08-.009.081.108.17.233.09-.036-.009-.108-.027-.117-.062l.054-.027c.018-.019.027-.045.027-.081 0-.027.018-.027.027-.027h.053c.036-.009.036.01.036.01.036.053.099.107.18.08.044-.018.062-.045.08-.063.027.019.063.036.099.063-.036-.09.035-.161.224-.036l.143-.107s.188.08.25-.01c.117-.098.055-.107.055-.205-.081-.18-.126-.162-.162-.34-.062-.305.359-.476.61-.43.044.196.322.707.78.86.277.098.393-.216.483-.171a.125.125 0 0 1 .054.063c-.027.152.009.286-.027.358-.036.063-.188.009-.287 0a.18.18 0 0 0-.116.045c-.081.018-.18.098-.18.197.036-.027.09-.072.162-.081v.036c.018.125.152.161.224.08.009-.009.044 0 .027.019-.063.053-.197.17-.09.215.009 0 .036.018.062.026 0 .072.054.144.117.153-.027-.036-.036-.054.009-.135h.063c.071 0 .035-.152.125-.197.009-.009.018 0 .009.01-.027.08-.036.187.036.214.009 0 .036.01.062.01.027.07.108.116.215.062-.026-.01-.08-.036-.09-.072.019-.027.054-.071.054-.071.054-.188-.107-.188-.107-.27 0-.089.188-.026.188-.205 0-.01 0-.018-.01-.036.09-.045.18-.107.189-.17a.435.435 0 0 1-.233-.045m-1.112-3.916c-.053.072-.071.153-.053.215.036.099.116.18.277.188a.651.651 0 0 0-.214.394.62.62 0 0 0 .439-.098c-.036.161.018.269.107.313.045.036.108.045.18.027a10.065 10.065 0 0 1 1.379 3.79.64.64 0 0 0-.305-.063.637.637 0 0 0 .126.359h-2.294c-.009-.126-.08-.215-.161-.242-.099-.045-.206-.019-.314.107a.698.698 0 0 0-.179-.412.617.617 0 0 0-.188.412c-.107-.125-.224-.152-.313-.107-.081.027-.153.116-.162.242H59.26a.6.6 0 0 0 .108-.35.628.628 0 0 0-.358.108v-3.18c.134 0 .25-.063.277-.153.036-.099.019-.215-.107-.323a.603.603 0 0 0 .412-.179.603.603 0 0 0-.412-.179c.125-.116.143-.224.107-.322-.026-.09-.143-.162-.277-.162V25.38c.08.053.179.098.304.107a.633.633 0 0 0-.071-.35c1.352.422 2.643 1.318 3.655 2.554m2.392 5.224a10.302 10.302 0 0 0-2.123-5.242 8.615 8.615 0 0 0-1.962-1.836 7.272 7.272 0 0 0-2.276-1.022l-.143-.035v8.26h6.522zm-2.016-5.331a10.418 10.418 0 0 1 2.186 5.59h-6.81V24.61c1.73.34 3.37 1.389 4.624 2.975m2.338 4.954a10.555 10.555 0 0 0-1.765-4.542.646.646 0 0 0 .269-.43.615.615 0 0 0-.475.125l-.188-.242c-1.156-1.451-2.607-2.463-4.166-2.911-.018-.251-.242-.368-.376-.314-.072.018-.135.08-.162.18-.026-.01-.044-.02-.071-.02a.629.629 0 0 0-.368-.151.643.643 0 0 0 .117.412v.036a.242.242 0 0 0-.224.125c-.072.116 0 .35.224.412v3.342a.568.568 0 0 0-.403.179c.125.125.269.18.403.18v3.61c-.215.053-.296.277-.242.394.036.08.108.143.242.143v.08a.589.589 0 0 0-.099.341.617.617 0 0 0 .323-.09h.098c.01.126.063.189.144.225.116.062.331-.019.394-.224h2.41c0 .134.054.286.18.42a.597.597 0 0 0 .187-.42h2.75c.054.233.278.322.404.26.08-.045.143-.126.143-.26h.054a.66.66 0 0 0 .367.107.653.653 0 0 0-.098-.322c0-.036-.01-.063-.01-.099.126-.009.198-.072.234-.152.062-.126-.045-.359-.296-.394m-44.984-2.553c-.009-.01-.009-.01 0-.01v.01m352.22 153.264v3.369h-4.631v14.442c0 .448.036.806.108 1.075.08.278.214.484.43.636.206.144.501.242.878.287.376.045.86.072 1.46.072h1.756v3.368h-2.93c-.985 0-1.836-.062-2.535-.197-.708-.134-1.281-.385-1.711-.743-.44-.359-.762-.87-.968-1.532-.215-.654-.313-1.523-.313-2.607v-14.801h-3.96v-3.369h3.96v-6.97h3.825v6.97zm-30.075 0v3.691h.09c1.594-2.822 4.112-4.228 7.561-4.228 1.532 0 2.804.206 3.826.627 1.021.421 1.845 1.003 2.473 1.756.627.744 1.075 1.64 1.325 2.67.26 1.039.386 2.186.386 3.449v15.284h-3.826v-15.74c0-1.434-.42-2.581-1.263-3.414-.833-.843-1.989-1.264-3.458-1.264-1.174 0-2.186.18-3.037.538a5.85 5.85 0 0 0-2.142 1.532 6.729 6.729 0 0 0-1.28 2.32c-.288.878-.43 1.846-.43 2.894v13.134h-3.818V183.25zm-11.477 6.836c-.35-.806-.806-1.505-1.397-2.087a6.394 6.394 0 0 0-2.07-1.398c-.797-.35-1.675-.52-2.634-.52-.985 0-1.881.17-2.67.52a6.136 6.136 0 0 0-2.051 1.416c-.565.6-1.022 1.299-1.353 2.087a8.302 8.302 0 0 0-.583 2.544h13.368a7.999 7.999 0 0 0-.61-2.562m.923 14.935c-1.738 1.317-3.933 1.98-6.567 1.98-1.863 0-3.476-.305-4.838-.905-1.37-.6-2.517-1.433-3.44-2.517-.932-1.075-1.63-2.366-2.097-3.87-.466-1.497-.725-3.127-.788-4.901 0-1.765.269-3.387.815-4.856.538-1.47 1.29-2.742 2.267-3.826a10.4 10.4 0 0 1 3.467-2.517c1.335-.6 2.795-.896 4.39-.896 2.07 0 3.78.42 5.143 1.28a10.123 10.123 0 0 1 3.288 3.262 12.86 12.86 0 0 1 1.71 4.318c.314 1.56.44 3.038.386 4.453h-17.41a9.303 9.303 0 0 0 .358 2.894 6.68 6.68 0 0 0 1.308 2.437c.6.699 1.361 1.263 2.293 1.684.932.421 2.025.627 3.288.627 1.622 0 2.948-.376 3.978-1.12 1.04-.752 1.72-1.89 2.052-3.422h3.772c-.511 2.607-1.631 4.578-3.37 5.895m-50.197-21.77v3.422h.09c1.737-2.643 4.237-3.96 7.507-3.96 1.443 0 2.75.295 3.915.896 1.174.6 1.998 1.621 2.473 3.064a8.124 8.124 0 0 1 3.082-2.93c1.281-.69 2.679-1.03 4.21-1.03 1.166 0 2.223.125 3.172.376.941.26 1.756.654 2.428 1.192a5.477 5.477 0 0 1 1.577 2.096c.376.851.565 1.881.565 3.082v17.04h-3.826v-15.24c0-.725-.063-1.397-.18-2.024-.125-.636-.349-1.183-.68-1.648-.323-.457-.788-.834-1.37-1.102-.583-.27-1.345-.404-2.267-.404-1.89 0-3.378.538-4.462 1.622-1.075 1.075-1.613 2.518-1.613 4.318v14.478h-3.825v-15.24c0-.752-.072-1.442-.206-2.069a4.353 4.353 0 0 0-.7-1.648c-.322-.466-.77-.825-1.325-1.075-.556-.251-1.263-.386-2.132-.386-1.111 0-2.061.224-2.858.672-.798.457-1.443.995-1.936 1.622a6.653 6.653 0 0 0-1.084 1.962c-.224.672-.331 1.236-.331 1.684v14.478h-3.826V183.25zm-23.93 0v3.69h.09c1.585-2.822 4.103-4.228 7.552-4.228 1.532 0 2.804.206 3.826.627 1.02.421 1.845 1.003 2.472 1.756.636.744 1.075 1.64 1.326 2.67.26 1.039.385 2.186.385 3.449v15.284h-3.825v-15.74c0-1.434-.421-2.581-1.254-3.414-.843-.843-1.998-1.264-3.468-1.264-1.173 0-2.186.18-3.037.538a5.926 5.926 0 0 0-2.14 1.532 6.728 6.728 0 0 0-1.282 2.32c-.278.878-.421 1.846-.421 2.894v13.134h-3.826V183.25zm-14.335 0v4.9h.09c.923-1.89 2.07-3.28 3.413-4.184 1.353-.896 3.064-1.317 5.134-1.254v4.04c-1.532 0-2.84.215-3.915.636-1.084.422-1.953 1.03-2.607 1.846-.663.806-1.147 1.792-1.443 2.939-.296 1.155-.448 2.481-.448 3.986v10.34h-3.825v-23.25zm-11.423 6.835a6.498 6.498 0 0 0-1.389-2.087 6.593 6.593 0 0 0-2.07-1.398c-.796-.35-1.674-.52-2.633-.52-.995 0-1.882.17-2.679.52a6.136 6.136 0 0 0-2.052 1.416c-.564.6-1.012 1.299-1.343 2.087a7.813 7.813 0 0 0-.583 2.544h13.358a7.77 7.77 0 0 0-.609-2.562m.923 14.935c-1.738 1.317-3.924 1.98-6.567 1.98-1.864 0-3.476-.305-4.838-.905-1.362-.6-2.509-1.433-3.44-2.517-.932-1.075-1.631-2.366-2.088-3.87-.466-1.497-.735-3.127-.788-4.901 0-1.765.268-3.387.806-4.856.538-1.47 1.3-2.742 2.276-3.826a10.276 10.276 0 0 1 3.458-2.517c1.335-.6 2.795-.896 4.39-.896 2.07 0 3.78.42 5.151 1.28a10.182 10.182 0 0 1 3.28 3.262 12.86 12.86 0 0 1 1.71 4.318c.314 1.56.449 3.038.386 4.453h-17.408a9.043 9.043 0 0 0 .359 2.894 6.53 6.53 0 0 0 1.299 2.437c.6.699 1.37 1.263 2.293 1.684.932.421 2.025.627 3.288.627 1.622 0 2.948-.376 3.987-1.12 1.03-.752 1.711-1.89 2.043-3.422h3.78c-.51 2.607-1.639 4.578-3.377 5.895m-30.596 1.478-8.636-23.249h4.273l6.523 19.388h.09l6.342-19.388h4.005l-8.502 23.25zm-26.886-7.848c.376 1.102.887 2.016 1.55 2.75a6.808 6.808 0 0 0 2.32 1.685 6.969 6.969 0 0 0 2.813.582c.986 0 1.927-.197 2.814-.582a6.861 6.861 0 0 0 2.311-1.684c.663-.735 1.183-1.649 1.55-2.75.376-1.094.564-2.34.564-3.755 0-1.406-.188-2.66-.564-3.754-.367-1.093-.887-2.015-1.55-2.768a6.68 6.68 0 0 0-2.311-1.702 6.86 6.86 0 0 0-2.814-.592c-.994 0-1.926.197-2.813.592a6.63 6.63 0 0 0-2.32 1.702c-.663.753-1.174 1.675-1.55 2.768-.376 1.093-.564 2.348-.564 3.754 0 1.416.188 2.661.564 3.754m-3.888-8.538c.474-1.487 1.191-2.777 2.159-3.87a10.16 10.16 0 0 1 3.548-2.59c1.415-.627 3.028-.94 4.864-.94 1.855 0 3.486.313 4.874.94a10.291 10.291 0 0 1 3.54 2.59c.958 1.093 1.674 2.383 2.158 3.87.475 1.478.717 3.073.717 4.784 0 1.711-.242 3.297-.717 4.766-.484 1.47-1.2 2.76-2.159 3.853-.967 1.093-2.141 1.944-3.539 2.562-1.388.61-3.019.923-4.874.923-1.836 0-3.449-.314-4.864-.923-1.407-.618-2.59-1.469-3.548-2.562-.968-1.093-1.685-2.383-2.16-3.853-.483-1.469-.725-3.055-.725-4.766 0-1.711.242-3.306.726-4.784m-12.902 16.01c-1.854.735-3.727 1.102-5.617 1.102-2.401 0-4.542-.448-6.433-1.326-1.89-.887-3.494-2.078-4.82-3.584a15.597 15.597 0 0 1-3.01-5.169 18.033 18.033 0 0 1-1.04-6.074c0-2.339.323-4.56.968-6.675.645-2.114 1.604-3.969 2.885-5.555 1.272-1.594 2.858-2.858 4.767-3.798 1.899-.95 4.13-1.425 6.683-1.425 1.738 0 3.378.206 4.928.61a12.525 12.525 0 0 1 4.139 1.917c1.21.869 2.23 1.97 3.055 3.306.824 1.335 1.388 2.947 1.684 4.829h-4.273c-.206-1.228-.6-2.285-1.165-3.172a7.776 7.776 0 0 0-2.114-2.177c-.843-.573-1.792-.994-2.858-1.281a13.01 13.01 0 0 0-3.396-.43c-1.953 0-3.628.394-5.017 1.173-1.398.78-2.536 1.801-3.422 3.082-.887 1.273-1.533 2.724-1.954 4.364a19.934 19.934 0 0 0-.636 5.008c0 1.684.242 3.297.726 4.838.475 1.54 1.183 2.911 2.114 4.094a10.263 10.263 0 0 0 3.44 2.831c1.362.708 2.948 1.057 4.749 1.057 1.675 0 3.163-.269 4.453-.806 1.29-.547 2.374-1.281 3.26-2.23.888-.942 1.55-2.053 1.999-3.325.457-1.28.645-2.652.591-4.121h-10.258v-3.593H167.5v16.906h-2.706l-1.12-3.995c-1.263 1.675-2.822 2.884-4.686 3.62m-37.52.384h-3.826V174.39h3.825zm-12.92-12.014c-.483.358-1.11.618-1.89.78-.78.17-1.604.304-2.455.403-.851.107-1.72.224-2.59.358a9.677 9.677 0 0 0-2.337.654 4.228 4.228 0 0 0-1.685 1.272c-.439.556-.654 1.308-.654 2.267 0 .618.126 1.156.385 1.586.251.43.583.78.986 1.048a4.1 4.1 0 0 0 1.416.582 7.59 7.59 0 0 0 1.71.18c1.264 0 2.34-.17 3.244-.511.896-.35 1.63-.78 2.204-1.3.564-.528.985-1.092 1.254-1.702.278-.609.412-1.182.412-1.72zm6.209 11.916c-.663.394-1.577.591-2.75.591-.986 0-1.774-.278-2.357-.833-.591-.556-.878-1.46-.878-2.724-1.048 1.264-2.275 2.168-3.673 2.724-1.389.555-2.894.833-4.515.833-1.049 0-2.052-.125-2.993-.358-.95-.242-1.765-.618-2.455-1.13a5.371 5.371 0 0 1-1.64-1.997c-.402-.824-.608-1.828-.608-2.992 0-1.317.224-2.401.672-3.244.457-.842 1.048-1.523 1.783-2.042.734-.529 1.576-.923 2.517-1.192.94-.269 1.908-.493 2.903-.68a37.218 37.218 0 0 1 2.992-.467c.94-.107 1.774-.26 2.5-.448.717-.197 1.28-.483 1.702-.86.421-.376.636-.923.636-1.64 0-.841-.161-1.513-.475-2.024a3.254 3.254 0 0 0-1.218-1.174 4.924 4.924 0 0 0-1.667-.537c-.609-.09-1.218-.135-1.818-.135-1.622 0-2.966.314-4.05.923-1.075.618-1.666 1.774-1.756 3.485h-3.825c.062-1.433.367-2.652.904-3.637a6.75 6.75 0 0 1 2.16-2.41c.896-.618 1.926-1.057 3.082-1.326a16.344 16.344 0 0 1 3.709-.403c1.048 0 2.096.071 3.126.224a8.184 8.184 0 0 1 2.814.914 5.427 5.427 0 0 1 2.024 1.953c.511.842.77 1.935.77 3.279v11.942c0 .896.046 1.55.153 1.971.108.421.457.628 1.057.628.332 0 .717-.054 1.174-.18zm-29.96-19.11c-.958-.815-2.248-1.219-3.87-1.219-1.38 0-2.535.26-3.467.762a6.142 6.142 0 0 0-2.222 2.025 8.406 8.406 0 0 0-1.191 2.902 15.771 15.771 0 0 0-.368 3.396c0 1.084.135 2.132.385 3.154a8.288 8.288 0 0 0 1.192 2.714 6.053 6.053 0 0 0 2.114 1.918c.87.483 1.909.716 3.11.716 1.89 0 3.359-.493 4.425-1.478 1.066-.994 1.72-2.392 1.962-4.184h3.915c-.42 2.876-1.496 5.098-3.216 6.657-1.73 1.559-4.076 2.338-7.042 2.338-1.774 0-3.342-.287-4.704-.86-1.361-.564-2.508-1.38-3.422-2.428-.914-1.048-1.604-2.302-2.07-3.754-.465-1.451-.698-3.055-.698-4.793s.224-3.36.68-4.874c.449-1.514 1.13-2.84 2.043-3.96.914-1.129 2.06-2.007 3.44-2.652s2.984-.967 4.82-.967c1.318 0 2.554.152 3.71.466 1.155.313 2.177.806 3.055 1.469.887.654 1.612 1.487 2.186 2.49.573 1.004.932 2.196 1.084 3.575h-3.96c-.305-1.469-.932-2.607-1.89-3.413M49.266 198.65c.368 1.102.887 2.016 1.55 2.75a6.723 6.723 0 0 0 2.32 1.685 6.926 6.926 0 0 0 2.805.582c.995 0 1.926-.197 2.813-.582a6.808 6.808 0 0 0 2.32-1.684c.655-.735 1.174-1.649 1.55-2.75.377-1.094.565-2.34.565-3.755 0-1.406-.188-2.66-.564-3.754-.377-1.093-.896-2.015-1.55-2.768a6.63 6.63 0 0 0-2.32-1.702 6.83 6.83 0 0 0-2.814-.592c-.985 0-1.926.197-2.804.592a6.549 6.549 0 0 0-2.32 1.702c-.664.753-1.183 1.675-1.55 2.768-.377 1.093-.565 2.348-.565 3.754 0 1.416.188 2.661.564 3.754m-3.897-8.538c.484-1.487 1.2-2.777 2.16-3.87.958-1.093 2.15-1.962 3.556-2.59 1.407-.627 3.028-.94 4.856-.94 1.864 0 3.494.313 4.883.94a10.173 10.173 0 0 1 3.53 2.59c.958 1.093 1.684 2.383 2.159 3.87.484 1.478.726 3.073.726 4.784 0 1.711-.242 3.297-.726 4.766-.475 1.47-1.2 2.76-2.16 3.853-.958 1.093-2.132 1.944-3.53 2.562-1.388.61-3.018.923-4.882.923-1.828 0-3.45-.314-4.856-.923-1.406-.618-2.598-1.469-3.557-2.562-.958-1.093-1.675-2.383-2.159-3.853-.475-1.469-.716-3.055-.716-4.766 0-1.711.241-3.306.716-4.784m-18.447-15.723v28.517h17.005v3.592H22.649v-32.11Zm273.094-35.873a8.57 8.57 0 0 0 1.388-1.218c.421-.448.77-.95 1.04-1.505.268-.556.403-1.174.403-1.864 0-.932-.332-1.729-.986-2.41-.663-.672-1.559-1.012-2.705-1.012-.896 0-1.738.277-2.518.833-.78.555-1.165 1.415-1.165 2.59 0 .483.09.958.287 1.441.197.475.448.95.744 1.416.295.466.627.923.985 1.37.368.449.726.897 1.084 1.345.448-.296.932-.627 1.443-.986m-4.838 6.522a8.975 8.975 0 0 0-1.783 1.532 6.831 6.831 0 0 0-1.21 1.909c-.304.708-.448 1.54-.448 2.5 0 .806.17 1.55.511 2.221.35.681.806 1.246 1.38 1.711a6.612 6.612 0 0 0 1.953 1.102 6.585 6.585 0 0 0 2.276.404c1.469 0 2.777-.34 3.933-1.03 1.155-.69 2.123-1.622 2.902-2.796l-7.382-8.86c-.744.42-1.46.86-2.132 1.307m7.696 13.583a12.4 12.4 0 0 1-5.152 1.128c-2.159 0-3.906-.331-5.223-.994-1.317-.654-2.338-1.451-3.055-2.383-.726-.932-1.192-1.89-1.425-2.876-.224-.995-.331-1.819-.331-2.473 0-1.263.197-2.374.61-3.333a9.528 9.528 0 0 1 1.612-2.589c.68-.761 1.47-1.451 2.383-2.06a35.502 35.502 0 0 1 2.903-1.739c-.448-.627-.878-1.227-1.3-1.8a18.628 18.628 0 0 1-1.146-1.73 8.273 8.273 0 0 1-.815-1.845c-.197-.645-.287-1.37-.287-2.177 0-.87.152-1.702.466-2.5a6.352 6.352 0 0 1 1.397-2.114 6.722 6.722 0 0 1 2.276-1.46c.896-.359 1.935-.538 3.1-.538.994 0 1.962.134 2.903.403a7.34 7.34 0 0 1 2.5 1.237 6.252 6.252 0 0 1 1.728 2.07c.44.823.654 1.773.654 2.857 0 .959-.16 1.855-.492 2.679a8.45 8.45 0 0 1-1.353 2.267 11.907 11.907 0 0 1-1.935 1.863 21 21 0 0 1-2.25 1.514l5.806 7.06c.6-1.684.941-3.342 1.03-4.99h3.647c-.09.958-.188 1.774-.296 2.446-.098.68-.233 1.299-.403 1.863a13.187 13.187 0 0 1-.609 1.693c-.233.556-.52 1.192-.851 1.909l6.253 7.239h-4.99l-3.422-3.996c-.959 1.496-2.276 2.616-3.933 3.369m-44.975-4.56a4.065 4.065 0 0 0 1.424 1.388c.583.35 1.245.591 1.98.744.735.152 1.487.224 2.267.224.6 0 1.227-.045 1.89-.135a6.79 6.79 0 0 0 1.819-.492 3.439 3.439 0 0 0 1.38-1.058c.358-.466.537-1.057.537-1.774 0-.994-.376-1.738-1.129-2.248-.743-.511-1.684-.923-2.813-1.246a48.606 48.606 0 0 0-3.664-.85 18.786 18.786 0 0 1-3.664-1.076c-1.13-.466-2.061-1.12-2.814-1.962-.752-.833-1.12-2.007-1.12-3.503 0-1.174.26-2.177.78-3.02a6.39 6.39 0 0 1 2.025-2.042c.824-.528 1.756-.914 2.795-1.174 1.03-.25 2.06-.376 3.082-.376 1.317 0 2.535.108 3.646.332 1.102.224 2.088.618 2.939 1.173.86.556 1.54 1.3 2.052 2.25.51.94.806 2.122.895 3.529h-3.816c-.063-.753-.26-1.37-.591-1.864a3.708 3.708 0 0 0-1.255-1.191 5.596 5.596 0 0 0-1.693-.654 8.67 8.67 0 0 0-1.864-.206c-.573 0-1.146.045-1.729.134-.591.09-1.12.251-1.603.475a3.27 3.27 0 0 0-1.165.896c-.305.376-.457.87-.457 1.46 0 .663.233 1.21.699 1.649.466.43 1.057.788 1.783 1.075.716.287 1.523.529 2.428.726.896.188 1.8.394 2.696.6.959.215 1.9.466 2.814.77.913.296 1.72.69 2.427 1.192a5.78 5.78 0 0 1 1.712 1.864c.43.752.654 1.675.654 2.786 0 1.415-.296 2.58-.878 3.512a6.881 6.881 0 0 1-2.294 2.249c-.95.573-2.016.967-3.198 1.191-1.183.224-2.357.34-3.53.34-1.29 0-2.518-.134-3.691-.412-1.165-.268-2.204-.707-3.1-1.325-.905-.61-1.622-1.425-2.16-2.428-.546-1.004-.842-2.222-.904-3.665h3.825c.027.842.224 1.55.583 2.142m-10.895-11.227a6.67 6.67 0 0 0-1.397-2.087 6.394 6.394 0 0 0-2.07-1.398c-.797-.349-1.675-.52-2.634-.52-.985 0-1.881.17-2.679.52a6.19 6.19 0 0 0-2.042 1.416c-.574.6-1.022 1.299-1.353 2.087a8.05 8.05 0 0 0-.583 2.545h13.359a7.761 7.761 0 0 0-.6-2.563m.922 14.935c-1.747 1.317-3.933 1.98-6.576 1.98-1.854 0-3.467-.304-4.829-.904-1.37-.6-2.517-1.434-3.45-2.518-.922-1.075-1.62-2.365-2.087-3.87-.466-1.497-.725-3.127-.788-4.901 0-1.765.269-3.387.806-4.856.547-1.47 1.3-2.741 2.276-3.825a10.4 10.4 0 0 1 3.467-2.518c1.335-.6 2.795-.896 4.381-.896 2.07 0 3.79.421 5.152 1.281a10.036 10.036 0 0 1 3.288 3.261 12.86 12.86 0 0 1 1.71 4.319c.314 1.559.44 3.037.377 4.452h-17.408a9.303 9.303 0 0 0 .359 2.894c.269.923.708 1.73 1.308 2.437.6.699 1.362 1.263 2.293 1.684.932.422 2.025.628 3.28.628 1.621 0 2.947-.377 3.986-1.12 1.03-.753 1.711-1.89 2.043-3.423h3.78c-.51 2.607-1.63 4.578-3.368 5.895m-25.229-30.631h3.826v4.677h-3.826zm3.835 32.11h-3.826V136h3.826zm-6.97-23.25v3.37h-4.633v14.441c0 .448.036.807.108 1.076.08.268.224.483.43.636.206.143.502.242.878.286.376.045.86.072 1.46.072h1.756v3.369h-2.92c-.995 0-1.837-.063-2.545-.197-.707-.135-1.272-.386-1.71-.744-.43-.358-.753-.869-.968-1.532-.206-.654-.314-1.523-.314-2.607v-14.8h-3.96v-3.37h3.96v-6.97h3.826v6.97zm-18.636-8.86h3.817v4.677h-3.817zm3.826 32.11h-3.826V136h3.826zM180.483 136v3.691h.09c1.585-2.822 4.111-4.228 7.552-4.228 1.532 0 2.813.206 3.825.627 1.022.42 1.846 1.003 2.482 1.756.627.743 1.066 1.64 1.326 2.67.25 1.039.376 2.186.376 3.44v15.293h-3.816v-15.741c0-1.434-.421-2.58-1.264-3.413-.842-.843-1.998-1.264-3.467-1.264-1.164 0-2.177.18-3.037.538a5.715 5.715 0 0 0-2.132 1.532 6.447 6.447 0 0 0-1.281 2.32c-.287.878-.43 1.846-.43 2.894v13.134h-3.826V136Zm-11.907 23.25v-3.683h-.09c-.815 1.433-1.846 2.49-3.109 3.172-1.263.671-2.741 1.012-4.453 1.012-1.532 0-2.804-.206-3.825-.61-1.021-.402-1.846-.985-2.473-1.728a6.552 6.552 0 0 1-1.326-2.68c-.26-1.038-.385-2.185-.385-3.44V136h3.826v15.741c0 1.443.42 2.58 1.254 3.423.842.833 1.998 1.254 3.467 1.254 1.174 0 2.186-.179 3.037-.537a5.65 5.65 0 0 0 2.141-1.532 6.688 6.688 0 0 0 1.282-2.312 9.67 9.67 0 0 0 .42-2.903V136h3.826v23.25zM119.282 136v3.423h.09c1.738-2.643 4.247-3.96 7.508-3.96 1.442 0 2.75.295 3.915.896 1.174.6 1.998 1.621 2.482 3.064.78-1.264 1.8-2.24 3.082-2.93 1.272-.69 2.67-1.03 4.202-1.03 1.173 0 2.23.125 3.171.376.95.26 1.756.654 2.428 1.191.68.547 1.2 1.237 1.577 2.097.376.851.564 1.881.564 3.082v17.04h-3.825v-15.24c0-.725-.063-1.397-.18-2.024-.125-.636-.349-1.183-.671-1.649a3.416 3.416 0 0 0-1.38-1.102c-.582-.268-1.344-.403-2.267-.403-1.89 0-3.377.538-4.452 1.622-1.085 1.075-1.622 2.517-1.622 4.318v14.478h-3.826v-15.24c0-.752-.071-1.442-.206-2.078a4.51 4.51 0 0 0-.69-1.64 3.237 3.237 0 0 0-1.334-1.074c-.556-.26-1.264-.386-2.133-.386-1.11 0-2.06.224-2.858.672-.797.457-1.442.995-1.935 1.622a6.654 6.654 0 0 0-1.084 1.962c-.224.672-.331 1.236-.331 1.684v14.478h-3.826V136Zm-37.332 0v3.423h.09c1.737-2.643 4.246-3.96 7.516-3.96 1.442 0 2.741.295 3.915.896 1.165.6 1.99 1.621 2.473 3.064a8.124 8.124 0 0 1 3.082-2.93c1.272-.69 2.679-1.03 4.21-1.03 1.165 0 2.222.125 3.172.376.94.26 1.756.654 2.428 1.191a5.477 5.477 0 0 1 1.577 2.097c.367.851.555 1.881.555 3.082v17.04h-3.825v-15.24c0-.725-.054-1.397-.18-2.024a4.057 4.057 0 0 0-.671-1.649 3.447 3.447 0 0 0-1.371-1.102c-.582-.268-1.344-.403-2.276-.403-1.89 0-3.368.538-4.452 1.622-1.075 1.075-1.622 2.517-1.622 4.318v14.478h-3.817v-15.24c0-.752-.071-1.442-.206-2.078a4.372 4.372 0 0 0-.698-1.64 3.21 3.21 0 0 0-1.326-1.074c-.556-.26-1.272-.386-2.142-.386-1.101 0-2.06.224-2.849.672-.797.457-1.442.995-1.935 1.622a6.27 6.27 0 0 0-1.084 1.962c-.224.672-.34 1.236-.34 1.684v14.478h-3.817V136Zm-25.104 15.401c.376 1.102.896 2.016 1.55 2.75a6.808 6.808 0 0 0 2.32 1.685 6.969 6.969 0 0 0 2.813.582c.986 0 1.927-.197 2.814-.582a6.775 6.775 0 0 0 2.311-1.685c.663-.734 1.183-1.648 1.559-2.75.367-1.093.555-2.338.555-3.754 0-1.407-.188-2.66-.555-3.754-.376-1.093-.896-2.016-1.559-2.768a6.489 6.489 0 0 0-2.311-1.702 6.86 6.86 0 0 0-2.814-.592c-.994 0-1.926.197-2.813.592a6.52 6.52 0 0 0-2.32 1.702c-.654.752-1.174 1.675-1.55 2.768-.376 1.093-.564 2.347-.564 3.754 0 1.416.188 2.661.564 3.754m-3.888-8.538c.474-1.487 1.2-2.777 2.159-3.87.958-1.093 2.141-1.963 3.557-2.59 1.406-.627 3.028-.94 4.855-.94 1.855 0 3.486.313 4.883.94a10.256 10.256 0 0 1 3.53 2.59c.959 1.093 1.675 2.383 2.16 3.87.483 1.478.716 3.073.716 4.784 0 1.711-.233 3.297-.717 4.766-.484 1.47-1.2 2.76-2.159 3.853-.959 1.093-2.141 1.944-3.53 2.562-1.397.61-3.028.923-4.883.923-1.827 0-3.449-.314-4.855-.923-1.416-.618-2.599-1.47-3.557-2.562-.959-1.093-1.685-2.383-2.16-3.853-.483-1.469-.725-3.055-.725-4.766 0-1.711.242-3.306.726-4.784m-10.895-11.181c-1.64-1.138-3.583-1.711-5.832-1.711-1.917 0-3.557.358-4.928 1.084a9.75 9.75 0 0 0-3.368 2.894c-.887 1.218-1.541 2.607-1.962 4.166a18.555 18.555 0 0 0-.627 4.855c0 1.828.205 3.566.627 5.197.42 1.63 1.075 3.055 1.962 4.273a9.797 9.797 0 0 0 3.395 2.903c1.38.717 3.028 1.075 4.946 1.075 1.415 0 2.66-.233 3.763-.699a8.559 8.559 0 0 0 2.83-1.935c.798-.824 1.416-1.8 1.864-2.938.457-1.147.726-2.375.815-3.692h4.274c-.421 4.05-1.819 7.195-4.184 9.443-2.374 2.25-5.608 3.378-9.72 3.378-2.491 0-4.66-.43-6.523-1.281-1.863-.86-3.404-2.034-4.632-3.53-1.236-1.505-2.15-3.27-2.768-5.313-.618-2.034-.923-4.229-.923-6.567s.331-4.533.985-6.585c.663-2.052 1.631-3.852 2.903-5.376 1.281-1.532 2.867-2.741 4.775-3.619 1.9-.887 4.086-1.335 6.54-1.335 1.685 0 3.27.233 4.776.681a12.877 12.877 0 0 1 4.005 1.98 11.124 11.124 0 0 1 2.92 3.261c.78 1.3 1.29 2.813 1.532 4.515h-4.273c-.484-2.275-1.541-3.986-3.172-5.124M400 107.008v4.543c0 1.71-.394 3.18-1.174 4.408-.78 1.227-2.033 2.096-3.78 2.607v-2.25c.51-.178.94-.438 1.29-.779.34-.349.618-.725.824-1.128.215-.404.358-.816.43-1.237.072-.42.099-.806.072-1.173H395v-4.99zm-17.659 1.102a6.153 6.153 0 0 0 2.142-2.07c.537-.85.931-1.818 1.191-2.902.251-1.075.386-2.16.386-3.234 0-1.022-.126-2.025-.368-3.01a8.165 8.165 0 0 0-1.147-2.68 5.906 5.906 0 0 0-2.042-1.917c-.842-.474-1.864-.716-3.064-.716-1.228 0-2.276.233-3.145.698a6.153 6.153 0 0 0-2.141 1.864c-.556.78-.959 1.684-1.21 2.697a12.925 12.925 0 0 0-.385 3.198c0 1.048.108 2.097.314 3.145.215 1.057.573 2.007 1.084 2.858.51.86 1.182 1.55 2.024 2.07.834.528 1.89.788 3.145.788 1.263 0 2.33-.26 3.216-.789m4.883 10.456c-1.738 1.89-4.47 2.84-8.188 2.84-1.076 0-2.178-.126-3.306-.368a10.016 10.016 0 0 1-3.055-1.164 7.135 7.135 0 0 1-2.276-2.115c-.6-.869-.932-1.935-.986-3.19h3.817c.036.682.25 1.273.654 1.748a4.8 4.8 0 0 0 1.487 1.174 7.27 7.27 0 0 0 1.909.654c.69.134 1.352.197 1.98.197 1.263 0 2.329-.215 3.198-.654a5.995 5.995 0 0 0 2.16-1.792c.564-.77.985-1.694 1.235-2.769.251-1.084.386-2.266.386-3.556v-1.524h-.09c-.663 1.434-1.657 2.491-2.992 3.172a9.324 9.324 0 0 1-4.256 1.003c-1.738 0-3.252-.313-4.542-.94a9.47 9.47 0 0 1-3.243-2.545c-.87-1.057-1.524-2.302-1.954-3.727-.439-1.424-.654-2.93-.654-4.524 0-1.38.18-2.795.538-4.247.367-1.46.968-2.777 1.8-3.96.843-1.182 1.954-2.159 3.334-2.92 1.38-.77 3.073-1.147 5.08-1.147 1.469 0 2.822.322 4.049.967 1.236.646 2.195 1.613 2.885 2.894h.045V88.75h3.592v21.27c0 3.807-.869 6.665-2.607 8.547m-37.88-29.816v3.69h.09c1.586-2.821 4.113-4.228 7.562-4.228 1.523 0 2.804.206 3.817.627 1.021.421 1.845 1.004 2.481 1.756.628.744 1.067 1.64 1.326 2.67.251 1.04.377 2.186.377 3.44V112h-3.817V96.257c0-1.433-.421-2.58-1.263-3.413-.842-.842-1.998-1.263-3.467-1.263-1.165 0-2.178.179-3.038.537-.85.359-1.567.87-2.132 1.532A6.447 6.447 0 0 0 350 95.97c-.287.879-.43 1.846-.43 2.894V112h-3.826v-23.25zm-12.237-8.87h3.825v4.686h-3.825zm3.834 32.119h-3.825v-23.25h3.825zm-22.649-5.188a4.04 4.04 0 0 0 1.416 1.389c.582.35 1.245.591 1.98.743.735.153 1.496.225 2.275.225.6 0 1.228-.045 1.89-.135a6.883 6.883 0 0 0 1.82-.493 3.41 3.41 0 0 0 1.37-1.057c.359-.466.538-1.057.538-1.774 0-.994-.367-1.747-1.12-2.248-.753-.511-1.693-.923-2.813-1.246a49.65 49.65 0 0 0-3.664-.85 19.327 19.327 0 0 1-3.674-1.076c-1.12-.466-2.06-1.12-2.804-1.962-.753-.833-1.129-2.007-1.129-3.503 0-1.174.26-2.177.789-3.02a6.391 6.391 0 0 1 2.024-2.042c.825-.529 1.756-.914 2.787-1.174 1.039-.25 2.06-.376 3.082-.376 1.326 0 2.535.108 3.646.332 1.11.224 2.096.618 2.948 1.173a6.046 6.046 0 0 1 2.042 2.249c.51.94.816 2.123.905 3.53h-3.825c-.063-.753-.26-1.37-.583-1.864a3.735 3.735 0 0 0-1.263-1.191 5.635 5.635 0 0 0-1.684-.654 8.751 8.751 0 0 0-1.873-.206c-.564 0-1.147.044-1.729.134-.582.09-1.12.251-1.595.475a3.304 3.304 0 0 0-1.173.896c-.296.376-.448.869-.448 1.46 0 .663.233 1.21.699 1.649.465.43 1.057.788 1.773 1.075.726.287 1.532.528 2.428.726.905.188 1.801.394 2.706.6.959.215 1.89.466 2.804.77.923.296 1.73.69 2.437 1.192a5.753 5.753 0 0 1 1.702 1.863c.44.753.654 1.676.654 2.787 0 1.415-.286 2.58-.878 3.512a6.8 6.8 0 0 1-2.293 2.248c-.94.574-2.007.968-3.19 1.192a18.98 18.98 0 0 1-3.53.34 15.91 15.91 0 0 1-3.69-.412c-1.174-.268-2.205-.707-3.11-1.326-.895-.609-1.612-1.424-2.159-2.428-.537-1.003-.842-2.221-.896-3.664h3.826c.027.842.224 1.55.582 2.141M306.878 112v-3.683h-.09c-.806 1.434-1.836 2.491-3.1 3.172-1.262.672-2.74 1.012-4.452 1.012-1.532 0-2.804-.206-3.825-.609-1.022-.403-1.846-.985-2.473-1.73-.636-.752-1.075-1.648-1.326-2.678-.26-1.04-.385-2.186-.385-3.44V88.75h3.825v15.74c0 1.443.421 2.581 1.254 3.423.843.833 1.998 1.254 3.468 1.254 1.173 0 2.186-.179 3.037-.537a5.72 5.72 0 0 0 2.141-1.532 6.687 6.687 0 0 0 1.281-2.312 9.67 9.67 0 0 0 .421-2.902V88.75h3.826v23.249zm-37.082-7.849c.377 1.102.896 2.016 1.55 2.75a6.808 6.808 0 0 0 2.32 1.685 6.969 6.969 0 0 0 2.814.582c.985 0 1.926-.197 2.813-.582a6.774 6.774 0 0 0 2.312-1.684c.663-.735 1.182-1.649 1.558-2.75.368-1.094.556-2.348.556-3.755 0-1.406-.188-2.66-.556-3.753-.376-1.093-.895-2.016-1.558-2.769a6.623 6.623 0 0 0-2.312-1.711 7 7 0 0 0-2.813-.582c-.995 0-1.926.197-2.813.582a6.655 6.655 0 0 0-2.32 1.711c-.655.753-1.174 1.676-1.55 2.769-.377 1.093-.565 2.347-.565 3.753 0 1.407.188 2.661.564 3.754m-3.888-8.547c.475-1.478 1.2-2.768 2.16-3.861a10.16 10.16 0 0 1 3.547-2.59c1.416-.626 3.037-.94 4.865-.94 1.854 0 3.485.314 4.883.94a10.257 10.257 0 0 1 3.53 2.59c.958 1.093 1.675 2.383 2.159 3.861.475 1.488.716 3.082.716 4.793 0 1.712-.241 3.297-.716 4.767-.484 1.469-1.2 2.75-2.16 3.852-.958 1.093-2.14 1.944-3.53 2.562-1.397.61-3.028.923-4.882.923-1.828 0-3.45-.313-4.865-.923-1.407-.618-2.59-1.469-3.548-2.562a10.917 10.917 0 0 1-2.159-3.852c-.484-1.47-.726-3.055-.726-4.767 0-1.71.242-3.305.726-4.793M239.882 79.89v13.806h16.915V79.889h4.273v32.11h-4.273V97.297h-16.915v14.702h-4.274v-32.11zm-32.164 12.23v-3.37h3.915v-3.467c0-1.89.547-3.315 1.64-4.291 1.093-.977 2.688-1.46 4.793-1.46.358 0 .77.026 1.236.09.466.053.878.143 1.237.268v3.324a4.932 4.932 0 0 0-1.084-.242 9.425 9.425 0 0 0-1.075-.072c-.932 0-1.649.18-2.16.538-.51.367-.77 1.057-.77 2.07v3.243h4.507v3.368h-4.507v19.88h-3.817v-19.88zm-18.59 12.031c.376 1.102.896 2.016 1.55 2.75a6.808 6.808 0 0 0 2.32 1.685 7 7 0 0 0 2.814.582c.985 0 1.926-.197 2.813-.582a6.808 6.808 0 0 0 2.32-1.684c.654-.735 1.174-1.649 1.55-2.75.376-1.094.556-2.348.556-3.755 0-1.406-.18-2.66-.556-3.753-.376-1.093-.896-2.016-1.55-2.769a6.655 6.655 0 0 0-2.32-1.711 7 7 0 0 0-2.813-.582c-.986 0-1.927.197-2.814.582a6.655 6.655 0 0 0-2.32 1.711c-.654.753-1.174 1.676-1.55 2.769-.376 1.093-.564 2.347-.564 3.753 0 1.407.188 2.661.564 3.754m-3.888-8.547c.475-1.478 1.2-2.768 2.159-3.861.959-1.093 2.141-1.962 3.557-2.59 1.406-.626 3.028-.94 4.856-.94 1.863 0 3.485.314 4.882.94a10.256 10.256 0 0 1 3.53 2.59c.959 1.093 1.676 2.383 2.16 3.861.483 1.488.716 3.082.716 4.793 0 1.712-.233 3.297-.717 4.767-.483 1.469-1.2 2.75-2.159 3.852-.958 1.093-2.141 1.944-3.53 2.562-1.397.61-3.019.923-4.882.923-1.828 0-3.45-.313-4.856-.923-1.416-.618-2.598-1.469-3.557-2.562a10.917 10.917 0 0 1-2.16-3.852c-.483-1.47-.716-3.055-.716-4.767 0-1.71.233-3.305.717-4.793m-24.432 19.504a24.86 24.86 0 0 1-1.326 2.876c-.439.78-.914 1.416-1.442 1.918a4.85 4.85 0 0 1-1.756 1.075c-.645.224-1.38.34-2.222.34-.448 0-.905-.036-1.353-.09a6.255 6.255 0 0 1-1.299-.322V117.4c.322.152.708.278 1.147.376.43.108.797.161 1.102.161.78 0 1.424-.188 1.953-.564.528-.376.923-.905 1.191-1.595l1.577-3.915-9.228-23.115h4.319l6.8 19.02h.09l6.522-19.02h4.05zM139.611 88.75v4.9h.09c.922-1.89 2.069-3.279 3.413-4.184 1.353-.896 3.064-1.317 5.133-1.254v4.04c-1.532 0-2.84.215-3.915.637-1.084.42-1.953 1.03-2.616 1.845-.654.807-1.138 1.792-1.433 2.939-.305 1.156-.448 2.482-.448 3.987v10.339h-3.826v-23.25zm-6.505 0v3.368h-4.632v14.442c0 .448.036.807.108 1.075.08.27.215.484.43.637.206.143.502.241.878.286.376.045.86.072 1.46.072h1.756v3.369h-2.93c-.985 0-1.836-.063-2.535-.198-.707-.134-1.28-.385-1.71-.743-.44-.358-.762-.87-.968-1.532-.215-.654-.314-1.523-.314-2.607v-14.8h-3.96v-3.37h3.96v-6.97h3.826v6.97zm-28.49 18.061a4.04 4.04 0 0 0 1.416 1.389c.591.35 1.245.591 1.98.743.734.153 1.496.225 2.275.225.6 0 1.228-.045 1.89-.135a6.883 6.883 0 0 0 1.82-.493 3.41 3.41 0 0 0 1.37-1.057c.359-.466.547-1.057.547-1.774 0-.994-.377-1.747-1.13-2.248-.752-.511-1.683-.923-2.812-1.246a48.606 48.606 0 0 0-3.665-.85 19.044 19.044 0 0 1-3.664-1.076c-1.129-.466-2.07-1.12-2.813-1.962-.753-.833-1.129-2.007-1.129-3.503 0-1.174.269-2.177.788-3.02a6.391 6.391 0 0 1 2.025-2.042c.824-.529 1.756-.914 2.787-1.174a13.12 13.12 0 0 1 3.081-.376c1.326 0 2.536.108 3.647.332 1.11.224 2.096.618 2.947 1.173.86.556 1.541 1.3 2.052 2.249.51.94.806 2.123.896 3.53h-3.826c-.062-.753-.25-1.37-.582-1.864a3.735 3.735 0 0 0-1.263-1.191 5.543 5.543 0 0 0-1.684-.654 8.732 8.732 0 0 0-1.864-.206c-.573 0-1.147.044-1.738.134-.582.09-1.12.251-1.595.475a3.304 3.304 0 0 0-1.173.896c-.296.376-.448.869-.448 1.46 0 .663.233 1.21.698 1.649.466.43 1.058.788 1.774 1.075.726.287 1.532.528 2.437.726.896.188 1.792.394 2.697.6.959.215 1.9.466 2.813.77.914.296 1.72.69 2.428 1.192a5.78 5.78 0 0 1 1.711 1.863c.43.753.645 1.676.645 2.787 0 1.415-.286 2.58-.869 3.512a6.965 6.965 0 0 1-2.293 2.248c-.95.574-2.016.968-3.199 1.192-1.182.224-2.365.34-3.53.34-1.29 0-2.517-.134-3.69-.412-1.174-.268-2.205-.707-3.11-1.326-.896-.609-1.612-1.424-2.159-2.428-.537-1.003-.833-2.221-.896-3.664h3.826c.027.842.224 1.55.582 2.141M92.817 79.88h3.826v4.686h-3.826zm3.826 32.119h-3.817v-23.25h3.817zm-24.27-23.25v3.692h.089c1.595-2.822 4.112-4.229 7.561-4.229 1.532 0 2.805.206 3.826.627 1.012.421 1.846 1.004 2.473 1.756.627.744 1.075 1.64 1.326 2.67.25 1.04.385 2.186.385 3.44V112h-3.826V96.257c0-1.433-.42-2.58-1.263-3.413-.842-.842-1.989-1.263-3.458-1.263-1.174 0-2.186.179-3.037.537a5.65 5.65 0 0 0-2.142 1.532c-.573.663-.994 1.434-1.28 2.32-.287.879-.43 1.846-.43 2.894V112H68.77v-23.25zm-12.23-8.86h3.825v4.677h-3.825zm0 8.86h3.825V112h-3.825zM50.673 112V85.282h-.09L40.55 112h-3.637L26.877 85.282h-.09V112h-4.049v-32.11h5.85l10.124 26.985 10.16-26.985h5.85v32.11zm0 0"/>
</svg>
